<svg width="580" height="598" viewBox="0 0 580 598" fill="none" xmlns="http://www.w3.org/2000/svg">
<path d="M278.893 282.973C279.954 283.307 281.097 283.216 282.096 282.719C283.095 282.222 283.875 281.355 284.282 280.291C284.688 279.227 284.69 278.044 284.288 276.978C283.886 275.913 283.109 275.043 282.112 274.541C281.214 274.177 280.245 274.042 279.286 274.146C278.327 274.25 277.406 274.591 276.602 275.139C275.992 275.717 275.553 276.461 275.334 277.285C275.115 278.109 275.126 278.979 275.365 279.797C275.604 280.615 276.062 281.346 276.686 281.908C277.31 282.47 278.075 282.839 278.893 282.973ZM277.24 278.369C277.24 275.857 282.083 275.558 282.547 278.369C283.446 282.285 277.095 282.046 277.24 278.369ZM275.5 91.6132C271.034 97.0251 272.107 103.992 279.125 107.4C280.713 106.978 282.333 106.698 283.968 106.563C285.831 106.689 287.683 106.959 289.507 107.37C291.442 106.172 292.946 104.357 293.793 102.2C294.641 100.042 294.785 97.6597 294.205 95.4105C293.665 93.4545 292.611 91.6904 291.159 90.3132C289.708 88.936 287.916 87.9992 285.98 87.6063C284.045 87.2134 282.042 87.3797 280.192 88.0868C278.343 88.7939 276.719 90.0143 275.5 91.6132ZM273.876 143.52C273.842 143.343 273.75 143.184 273.615 143.07C273.48 142.956 273.311 142.894 273.136 142.894C272.962 142.894 272.793 142.956 272.658 143.07C272.523 143.184 272.431 143.343 272.397 143.52C272.181 145.186 272.056 146.863 272.02 148.543C272.096 148.782 272.244 148.99 272.442 149.138C272.64 149.286 272.878 149.365 273.122 149.365C273.366 149.365 273.604 149.286 273.802 149.138C274 148.99 274.148 148.782 274.224 148.543C274.369 148.034 273.876 144.028 273.876 143.52ZM296.757 144.058C296.723 143.881 296.631 143.723 296.496 143.609C296.361 143.494 296.192 143.432 296.017 143.432C295.843 143.432 295.674 143.494 295.539 143.609C295.404 143.723 295.312 143.881 295.278 144.058C295.278 144.476 294.785 148.513 294.93 149.081C295.006 149.32 295.154 149.529 295.352 149.676C295.55 149.824 295.788 149.904 296.032 149.904C296.276 149.904 296.514 149.824 296.712 149.676C296.91 149.529 297.058 149.32 297.134 149.081C297.279 148.513 296.757 144.506 296.757 144.058ZM274.079 133.682C270.599 133.383 269.004 138.945 268.946 139.184C268.896 139.355 268.914 139.539 268.995 139.696C269.077 139.853 269.215 139.97 269.381 140.021C269.546 140.073 269.725 140.055 269.877 139.97C270.029 139.886 270.143 139.743 270.193 139.573C270.367 139.124 272.223 135.865 274.398 135.985C275.5 136.074 276.051 133.832 274.079 133.682ZM297.627 139.991C297.573 138.938 297.208 137.926 296.581 137.092C295.954 136.259 295.094 135.643 294.118 135.327C293.826 135.248 293.515 135.291 293.254 135.448C292.993 135.605 292.803 135.863 292.726 136.164C292.649 136.466 292.691 136.786 292.844 137.055C292.996 137.324 293.246 137.52 293.538 137.599C294.251 137.861 294.889 138.301 295.395 138.88C295.902 139.46 296.26 140.16 296.438 140.918C296.484 141.081 296.591 141.218 296.735 141.299C296.879 141.38 297.049 141.399 297.206 141.352C297.364 141.304 297.497 141.194 297.576 141.045C297.655 140.897 297.673 140.722 297.627 140.559C297.627 140.559 297.685 140.231 297.627 139.991ZM284.2 155.868C284.316 155.829 284.417 155.753 284.489 155.651C284.56 155.549 284.599 155.426 284.599 155.3C284.599 155.174 284.56 155.052 284.489 154.95C284.417 154.848 284.316 154.771 284.2 154.732C282.866 154.463 281.3 154.373 281.3 153.028C281.453 151.349 281.705 149.682 282.054 148.034C282.07 147.886 282.034 147.736 281.953 147.612C281.872 147.489 281.75 147.399 281.61 147.359C281.47 147.319 281.321 147.333 281.19 147.396C281.059 147.46 280.954 147.569 280.894 147.706C280.173 149.633 279.667 151.64 279.386 153.686C279.444 155.48 281.3 156.825 284.2 155.868ZM287.825 159.785C287.187 160.498 286.403 161.055 285.53 161.417C284.658 161.779 283.718 161.936 282.779 161.878C282.135 161.767 281.522 161.518 280.977 161.147C280.433 160.776 279.97 160.292 279.618 159.725C279.537 159.571 279.4 159.456 279.237 159.405C279.074 159.355 278.898 159.373 278.748 159.456C278.598 159.54 278.486 159.681 278.437 159.849C278.388 160.017 278.406 160.199 278.487 160.353C278.951 161.39 279.677 162.278 280.59 162.924C281.503 163.57 282.569 163.95 283.674 164.024C284.779 164.097 285.882 163.862 286.868 163.342C287.854 162.822 288.686 162.038 289.275 161.071C289.652 160.084 288.608 159.068 287.825 159.785ZM287.506 337.451C287.578 337.502 287.664 337.53 287.752 337.53C287.84 337.53 287.926 337.502 287.999 337.451C291.102 335.448 314.447 316.312 316.361 314.607C316.425 314.546 316.469 314.467 316.489 314.38C316.509 314.293 316.502 314.201 316.471 314.117C316.44 314.034 316.385 313.962 316.314 313.91C316.242 313.859 316.158 313.831 316.071 313.83C316.071 313.83 268.221 312.873 259.782 312.574C259.289 312.574 259.202 313.112 259.463 313.352C261 314.906 279.531 331.142 287.506 337.451ZM388.31 567.771C390.485 563.196 386.425 555.512 384.598 552.402C384.562 552.326 384.507 552.262 384.437 552.218C384.368 552.173 384.288 552.149 384.206 552.149C384.125 552.149 384.045 552.173 383.975 552.218C383.906 552.262 383.85 552.326 383.815 552.402C382.336 555.392 379.233 563.226 382.191 567.741C384.192 571.09 386.744 571.329 388.31 567.771ZM211.7 535.628C211.41 535.808 190.182 548.396 189.37 549.681C188.558 550.967 188.587 551.924 189.689 552.013C198.389 552.582 201.724 553.329 202.072 553.748C202.623 555.751 203.232 563.884 204.392 565.498C204.515 565.697 204.692 565.855 204.901 565.953C205.11 566.051 205.341 566.085 205.568 566.05C205.795 566.015 206.007 565.914 206.179 565.757C206.351 565.601 206.476 565.397 206.538 565.169C207.756 560.445 211.584 545.734 212.338 543.313C213.092 540.891 214.368 534.642 211.7 535.628ZM211.294 538.439C211.004 540.412 209.612 546.123 205.494 560.714C205.153 557.67 204.532 554.667 203.638 551.744C200.167 550.674 196.584 550.042 192.966 549.861C198.94 546.033 205.204 542.356 211.207 538.439H211.294ZM226.693 547.977C226.931 547.954 227.155 547.847 227.326 547.674C227.497 547.501 227.605 547.273 227.632 547.027C227.66 546.782 227.604 546.535 227.475 546.326C227.347 546.118 227.152 545.962 226.925 545.884C225.852 545.561 224.736 545.419 223.619 545.465V541.13C223.619 540.924 223.539 540.726 223.398 540.58C223.257 540.434 223.065 540.352 222.865 540.352C222.665 540.352 222.473 540.434 222.332 540.58C222.19 540.726 222.111 540.924 222.111 541.13C222.111 542.685 221.85 544.12 221.734 545.585C220.371 545.585 219.008 545.854 217.587 546.063C216.166 546.273 216.775 547.947 217.819 547.857C219.045 547.783 220.275 547.783 221.502 547.857C221.502 549.173 221.241 550.578 221.183 551.924C221.229 552.235 221.381 552.519 221.613 552.724C221.844 552.929 222.139 553.042 222.444 553.042C222.75 553.042 223.045 552.929 223.276 552.724C223.507 552.519 223.66 552.235 223.706 551.924V547.947C224.7 548.023 225.698 548.033 226.693 547.977ZM296.554 531.622C296.306 530.869 295.844 530.21 295.229 529.73C294.614 529.251 293.873 528.972 293.103 528.931C290.435 528.931 287.941 532.309 285.824 535.449H285.621C283.562 533.954 282.924 533.954 281.01 536.047C278.458 538.887 279.531 539.396 282.837 542.027C280.604 545.226 274.978 553.479 274.137 554.974C273.296 556.469 270.831 560.684 273.557 563.017C274.117 563.43 274.793 563.639 275.481 563.612C276.169 563.585 276.828 563.323 277.356 562.867C281.568 557.601 285.443 552.058 288.956 546.273C291.856 548.067 292.088 548.425 294.35 546.512C294.678 546.291 294.953 545.995 295.154 545.648C295.355 545.301 295.477 544.911 295.51 544.509C295.51 543.043 293.799 542.027 292.61 541.04C293.625 539.515 294.524 538.05 295.336 536.525C295.874 535.849 296.262 535.06 296.473 534.213C296.683 533.366 296.711 532.481 296.554 531.622ZM287.39 536.555C288.35 535.216 289.376 533.929 290.464 532.698C291.885 531.113 292.929 530.725 293.886 531.412C295.51 532.519 294.611 533.505 291.276 539.754L287.39 536.555ZM275.065 561.492C273.412 561.103 274.485 558.502 275.268 556.947C276.051 555.392 281.938 546.602 284.2 543.043C285.099 543.701 286.607 544.718 287.332 545.166C285.36 548.635 279.763 557.126 278.632 558.442C277.501 559.758 276.457 561.821 275.065 561.492ZM283.33 536.137L283.794 536.316C284.258 536.495 293.712 544.449 293.712 544.628C293.29 545.273 292.736 545.814 292.088 546.213C290.986 545.316 284.142 540.532 281.59 538.469C282.121 537.654 282.703 536.875 283.33 536.137ZM347.304 551.057C347.304 551.057 360.47 565.618 361.63 566.007C363.573 566.545 374.071 554.047 375.463 552.372C376.826 553.568 377.522 553.778 379.059 552.193C380.01 551.168 380.802 549.998 381.408 548.724C381.509 548.528 381.547 548.303 381.516 548.082C381.484 547.862 381.386 547.657 381.234 547.499C366.473 532.07 363.834 529.2 363.225 528.961C361.311 528.123 360.325 530.545 359.194 531.412C357.628 532.967 356.787 533.446 359.368 536.436C347.594 549.592 346.666 549.502 347.304 551.057ZM359.716 533.505C360.488 532.586 361.354 531.754 362.297 531.024C362.297 531.024 370.997 539.994 379.233 548.366C378.706 549.378 378.064 550.322 377.319 551.176C377 550.847 360.18 534.014 359.6 533.505H359.716ZM374.216 550.997C361.572 564.811 362.848 564.272 361.514 562.957C360.731 562.269 351.016 551.954 349.537 550.19C350.581 548.994 360.209 538.23 360.847 537.632C360.702 537.751 372.128 549.143 374.1 550.997H374.216Z" fill="white"/>
<path d="M358.903 544.688C356.003 547.858 353.741 548.785 354.06 550.489C355.477 552.653 357.11 554.657 358.932 556.469C359.044 556.563 359.182 556.615 359.326 556.617C359.469 556.619 359.609 556.572 359.723 556.482C359.837 556.392 359.918 556.265 359.954 556.122C359.989 555.978 359.977 555.827 359.918 555.692C359.918 555.692 357.627 551.655 356.641 550.31C356.873 550.011 359.338 546.602 360.005 545.825C360.151 545.674 360.234 545.47 360.234 545.257C360.234 545.043 360.151 544.839 360.005 544.688C359.859 544.538 359.661 544.453 359.454 544.453C359.248 544.453 359.049 544.538 358.903 544.688Z" fill="white"/>
<path d="M401.707 581.375L330.599 580.897C330.599 575.784 329.004 533.326 328.888 529.708C328.888 528.602 327.177 528.602 327.235 529.708C327.235 532.698 328.279 578.086 328.424 580.867H251.023C251.023 576.023 250.269 538.02 250.211 535.419C250.211 535.205 250.128 535 249.982 534.848C249.835 534.697 249.636 534.612 249.428 534.612C249.22 534.612 249.021 534.697 248.874 534.848C248.727 535 248.645 535.205 248.645 535.419V580.867C242.613 580.867 179.045 580.867 170.345 581.525C170.159 581.562 169.992 581.664 169.872 581.814C169.752 581.964 169.686 582.152 169.686 582.347C169.686 582.542 169.752 582.73 169.872 582.881C169.992 583.031 170.159 583.133 170.345 583.169C178.088 583.528 394.747 583.947 401.852 582.242C401.946 582.205 402.025 582.136 402.074 582.045C402.124 581.955 402.142 581.85 402.125 581.748C402.108 581.645 402.057 581.552 401.98 581.484C401.904 581.416 401.808 581.378 401.707 581.375ZM193.139 41.8597C193.806 43.0557 200.592 43.4444 201.201 43.2052C201.601 43.0604 201.946 42.7882 202.187 42.4278C204.487 44.406 206.898 46.2431 209.408 47.9294C209.766 48.2277 210.18 48.4456 210.625 48.5692C211.069 48.6928 211.534 48.7193 211.989 48.647C213.207 48.2882 236.088 34.2352 236.436 33.996C237.944 33.0392 237.973 32.0824 237.77 31.4545C237.335 30.2286 213.961 18.9264 210.22 14.7105C210.112 14.6296 209.989 14.5716 209.858 14.5399C209.728 14.5081 209.593 14.5032 209.461 14.5254C209.329 14.5476 209.203 14.5966 209.089 14.6694C208.975 14.7422 208.877 14.8375 208.799 14.9497C205.899 18.3882 203.318 21.9164 200.679 25.4147C198.022 25.3303 195.366 25.6323 192.791 26.3117C192.507 31.4957 192.623 36.6948 193.139 41.8597ZM213.062 32.8897C212.766 33.7248 212.204 34.4312 211.467 34.893C210.017 35.4013 208.567 33.996 208.074 33.3681C206.479 31.4545 210.104 27.3881 212.511 30.5874C212.812 30.9112 213.022 31.3129 213.119 31.7499C213.216 32.1868 213.196 32.6427 213.062 33.0691V32.8897ZM210.974 27.3582C210.106 27.201 209.213 27.2955 208.394 27.6311C207.575 27.9668 206.863 28.5304 206.336 29.2591C205.81 29.9878 205.49 30.853 205.413 31.758C205.336 32.6631 205.504 33.5725 205.899 34.3847C206.491 35.389 207.357 36.1911 208.388 36.691C209.42 37.1908 210.571 37.3663 211.699 37.1953C212.478 36.9024 213.17 36.4073 213.708 35.7577C214.247 35.1082 214.613 34.3263 214.773 33.4877C217.963 33.4877 228.925 33.4877 233.304 33.2784L211.699 46.255C210.481 45.7168 203.347 40.275 202.477 39.5574C202.477 37.9129 202.477 28.0758 202.274 26.4911C204.71 23.5011 207.204 20.3018 209.582 17.1025C213.12 20.0925 229.447 29.0625 234.232 31.6638H214.86C214.734 30.6347 214.286 29.6757 213.585 28.9314C212.885 28.1872 211.968 27.698 210.974 27.5376V27.3582ZM194.734 27.8964L200.099 27.6871C200.099 28.614 200.447 39.6471 200.302 41.2019C198.471 41.3264 196.632 41.2361 194.821 40.9328C194.995 38.8697 194.85 30.408 194.734 28.0758V27.8964ZM103.935 185.081C104.239 185.262 104.584 185.357 104.935 185.357C105.287 185.357 105.632 185.262 105.936 185.081C108.227 183.915 112.78 179.818 126.062 170.759C126.452 170.54 126.788 170.233 127.044 169.86C127.301 169.486 127.471 169.057 127.541 168.606C127.541 168.606 128.034 155.839 127.338 155.42C125.105 153.985 118.638 149.44 116.782 149.739C116.55 149.739 92.0739 165.466 92.0159 166.214C91.7735 169.477 91.7251 172.752 91.8709 176.021C95.6965 179.309 99.7264 182.335 103.935 185.081ZM93.6399 168.277C95.8729 169.832 102.108 174.257 103.819 175.154V181.971C92.9729 174.496 93.6689 175.752 93.7559 173.539C93.7849 172.313 93.6979 169.443 93.6399 168.277ZM105.008 172.672C104.823 172.813 104.6 172.889 104.37 172.889C104.14 172.889 103.917 172.813 103.732 172.672C103.268 172.373 96.7719 167.589 95.0319 166.304C117.826 151.354 117.014 151.174 118.232 151.623C118.812 151.862 121.538 153.656 125.221 156.167C120.871 159.995 105.443 172.373 105.008 172.672ZM125.308 168.696C124.699 169.294 109.01 180.028 105.53 182.36V174.885C107.589 173.27 121.19 162.267 125.424 158.53C125.54 168.397 125.714 168.397 125.453 168.696H125.308ZM425.371 186.905C430.787 186.774 436.056 185.064 440.567 181.971C442.817 180.509 444.512 178.295 445.367 175.698C446.222 173.102 446.186 170.281 445.265 167.709C447.179 166.214 453.298 160.862 454.487 159.696C456.952 159.845 459.823 155.33 461.36 152.878C461.998 151.862 462.839 150.815 462.404 149.649C458.489 145.377 454.345 141.334 449.992 137.54C449.701 137.222 449.323 137.004 448.909 136.913C448.494 136.822 448.063 136.864 447.672 137.031C444.784 139.918 442.181 143.093 439.9 146.51C439.8 146.952 439.851 147.417 440.045 147.825C440.045 148.035 436.014 160.084 435.521 161.549C433.351 161.775 431.335 162.812 429.856 164.465C428.376 166.117 427.534 168.271 427.488 170.519C427.14 179.25 433.839 182.061 425.11 185.29C424.989 185.397 424.897 185.535 424.842 185.69C424.788 185.844 424.773 186.011 424.799 186.173C424.825 186.336 424.892 186.488 424.992 186.616C425.092 186.744 425.223 186.844 425.371 186.905ZM442.133 147.048C444.017 144.194 446.238 141.593 448.745 139.304C450.311 140.59 459.359 149.201 460.345 150.606C459.62 151.892 455.56 157.334 454.545 157.453C454.458 157.363 442.51 147.407 442.133 147.048ZM444.221 165.765C442.743 163.531 440.472 161.985 437.899 161.46C438.479 159.456 440.596 152.131 441.321 149.171C443.525 151.114 448.977 155.839 452.312 158.559C451.007 159.905 446.077 164.24 444.221 165.765ZM430.011 184.543C432.273 182.42 431.722 179.639 430.678 176.978C428.822 170.998 429.373 167.141 432.476 165.018C433.277 164.494 434.171 164.14 435.106 163.977C436.041 163.814 436.999 163.844 437.922 164.067C438.845 164.29 439.717 164.7 440.484 165.274C441.252 165.848 441.901 166.574 442.394 167.41C446.976 174.855 438.392 182.838 430.011 184.543ZM244.063 32.8897C245.252 32.8897 252.212 31.9628 258.563 31.2751C258.786 31.2751 259 31.1838 259.158 31.0212C259.315 30.8586 259.404 30.638 259.404 30.408C259.404 30.1781 259.315 29.9575 259.158 29.7949C259 29.6323 258.786 29.5409 258.563 29.5409C256.185 29.7801 245.02 30.4678 243.802 30.7369C243.567 30.8178 243.366 30.9803 243.234 31.1966C243.101 31.413 243.046 31.6699 243.077 31.9236C243.107 32.1774 243.223 32.4123 243.402 32.5884C243.582 32.7646 243.816 32.871 244.063 32.8897ZM266.799 30.9761C267.582 30.9761 282.981 29.6605 286.374 29.8399C287.505 29.8399 287.592 28.1356 286.374 28.0459C279.746 27.7127 273.103 27.9327 266.509 28.7037C266.258 28.7884 266.044 28.9607 265.904 29.1908C265.764 29.4209 265.706 29.6944 265.74 29.9639C265.774 30.2335 265.899 30.4822 266.092 30.667C266.286 30.8518 266.536 30.9612 266.799 30.9761ZM295.103 29.2718L307.602 28.913C307.809 28.8742 307.996 28.7617 308.131 28.595C308.266 28.4283 308.34 28.2182 308.34 28.0011C308.34 27.784 308.266 27.5738 308.131 27.4072C307.996 27.2405 307.809 27.128 307.602 27.0891L295.161 26.7303C294.865 26.7694 294.593 26.9165 294.393 27.1449C294.193 27.3733 294.08 27.668 294.073 27.9754C294.066 28.2828 294.166 28.5827 294.355 28.8205C294.544 29.0584 294.809 29.2185 295.103 29.2718ZM317.549 29.6904C322.885 29.6904 342.141 30.6173 346.839 31.4545C347.999 31.6937 348.405 29.8399 347.245 29.6306C337.407 28.0882 327.471 27.3086 317.52 27.2984C317.212 27.3024 316.919 27.4322 316.704 27.6593C316.489 27.8864 316.371 28.1922 316.374 28.5094C316.378 28.8266 316.504 29.1292 316.724 29.3507C316.945 29.5722 317.241 29.6944 317.549 29.6904ZM356.206 34.8631C363.883 37.2043 370.977 41.2337 376.999 46.6736C377.927 47.5407 379.232 46.1354 378.333 45.2683C372.25 39.2604 364.847 34.8594 356.757 32.4412C356.464 32.4134 356.172 32.4955 355.933 32.6727C355.695 32.8498 355.526 33.1099 355.459 33.4049C355.392 33.7 355.431 34.0101 355.568 34.2781C355.705 34.5461 355.932 34.7539 356.206 34.8631ZM381.929 74.7497C381.689 74.8103 381.478 74.9592 381.337 75.1686C381.195 75.378 381.133 75.6335 381.161 75.8869C381.19 76.1403 381.307 76.3743 381.491 76.5448C381.675 76.7153 381.913 76.8107 382.161 76.8128C385.989 76.8128 390.484 72.2082 390.861 65.8395C391.238 59.4708 387.004 54.3579 382.944 50.0822C382.771 49.8999 382.535 49.7958 382.287 49.793C382.04 49.7902 381.801 49.8889 381.624 50.0673C381.448 50.2457 381.347 50.4893 381.344 50.7444C381.341 50.9996 381.437 51.2454 381.61 51.4277C386.192 56.3313 388.425 60.8163 388.454 65.1817C388.531 67.2929 387.935 69.3718 386.756 71.1C385.577 72.8282 383.882 74.1103 381.929 74.7497ZM350.29 84.4672C353.19 84.4672 372.301 79.9523 375.462 79.1749C375.683 79.0997 375.869 78.9413 375.982 78.7312C376.096 78.5212 376.128 78.2749 376.073 78.0413C376.018 77.8077 375.88 77.604 375.686 77.4706C375.493 77.3371 375.257 77.2838 375.027 77.3211C370.706 78.3377 355.452 81.0885 350.087 82.0453C349.805 82.1093 349.556 82.2768 349.385 82.5165C349.214 82.7561 349.133 83.0517 349.158 83.3481C349.183 83.6445 349.311 83.9214 349.52 84.1273C349.728 84.3332 350.002 84.4541 350.29 84.4672ZM342.431 82.4938C336.254 83.1815 329.787 83.7795 323.552 84.7363C323.29 84.8173 323.063 84.9889 322.909 85.2223C322.756 85.4557 322.685 85.7366 322.708 86.0176C322.732 86.2986 322.849 86.5625 323.04 86.7649C323.231 86.9672 323.483 87.0956 323.755 87.1283C325.524 87.1283 339.676 85.2147 342.518 84.8559C343.997 84.6466 343.91 82.2845 342.431 82.4938ZM298.699 90.1482C300.381 90.1482 311.981 88.2047 314.678 87.816C314.904 87.7573 315.102 87.6154 315.234 87.417C315.365 87.2186 315.422 86.9774 315.394 86.7387C315.365 86.5 315.253 86.2803 315.079 86.1208C314.904 85.9613 314.679 85.873 314.446 85.8725C310.908 86.2911 301.947 87.0984 298.467 87.7263C298.184 87.7917 297.933 87.9617 297.763 88.2043C297.593 88.4469 297.515 88.7453 297.543 89.0432C297.572 89.3411 297.705 89.6179 297.918 89.8215C298.131 90.0251 298.409 90.1413 298.699 90.1482ZM250.298 94.4538C256.504 94.4538 262.855 93.3176 269.003 92.7196C270.279 92.7196 270.279 90.5369 269.003 90.6565C262.826 91.1648 256.359 91.4339 250.124 92.3309C248.877 92.4804 249.022 94.4538 250.298 94.4538ZM219.732 97.2046C219.477 97.2668 219.253 97.4228 219.103 97.6433C218.952 97.8637 218.884 98.1335 218.913 98.4017C218.941 98.6699 219.064 98.9181 219.257 99.0996C219.451 99.2812 219.702 99.3835 219.964 99.3874C221.936 99.3874 237.857 96.9654 240.264 96.6365C240.517 96.575 240.739 96.4181 240.886 96.1964C241.034 95.9748 241.095 95.7045 241.059 95.4386C241.022 95.1728 240.891 94.9305 240.69 94.7593C240.49 94.5882 240.234 94.5006 239.974 94.5136C236.175 94.992 222.951 96.5169 219.732 97.2046ZM175.565 105.756C186.819 103.321 198.195 101.524 209.64 100.374C211.148 100.374 211.09 97.8325 209.64 97.982C198.052 98.6938 186.555 100.536 175.304 103.484C175.055 103.567 174.841 103.736 174.699 103.964C174.558 104.191 174.497 104.462 174.528 104.73C174.559 104.999 174.679 105.248 174.868 105.435C175.057 105.622 175.304 105.735 175.565 105.756ZM136.763 121.184C144.496 116.407 152.943 112.982 161.761 111.048C163.298 110.719 162.689 108.327 161.181 108.656C152.1 110.515 143.398 113.974 135.458 118.882C135.209 119.083 135.039 119.369 134.98 119.689C134.921 120.009 134.976 120.34 135.135 120.621C135.294 120.902 135.547 121.114 135.846 121.218C136.146 121.321 136.471 121.309 136.763 121.184ZM112.258 145.224C115.459 136.336 121.628 128.915 129.658 124.294C130.731 123.696 129.832 122.052 128.73 122.62C119.987 127.101 113.271 134.904 109.996 144.387C109.445 146.061 111.707 146.719 112.258 145.224ZM118.58 180.984C117.71 179.968 116.318 181.373 117.13 182.36C119.16 184.782 129.861 193.273 132.036 193.273C132.264 193.271 132.485 193.192 132.666 193.048C132.846 192.904 132.976 192.704 133.035 192.476C133.095 192.249 133.08 192.008 132.994 191.79C132.908 191.572 132.754 191.39 132.558 191.27C127.639 188.233 122.964 184.794 118.58 180.984ZM159.006 200.15C152.46 199.483 146.053 197.779 140.011 195.097C138.677 194.499 137.575 196.532 138.938 197.19C145.217 200.257 151.99 202.102 158.919 202.632C160.514 202.722 160.514 200.33 159.006 200.15ZM165.299 204.247C168.663 204.755 182.38 207.057 185.86 207.237C186.148 207.245 186.429 207.143 186.648 206.95C186.868 206.757 187.009 206.486 187.045 206.191C187.081 205.896 187.01 205.598 186.844 205.355C186.679 205.111 186.431 204.94 186.15 204.875C182.815 204.157 169.214 202.483 165.85 201.885C164.487 201.855 163.936 204.007 165.299 204.247ZM209.988 207.894C204.362 208.41 198.692 207.924 193.226 206.459C192.998 206.433 192.769 206.491 192.58 206.624C192.391 206.756 192.254 206.955 192.194 207.183C192.134 207.41 192.156 207.653 192.255 207.866C192.354 208.079 192.523 208.248 192.733 208.343C198.377 210.039 204.274 210.657 210.133 210.167C211.438 210.017 211.409 207.805 209.988 207.894ZM402.722 193.214C408.766 192.531 414.724 191.198 420.499 189.237C421.717 188.818 421.195 186.845 419.948 187.234C414.315 188.922 408.536 190.043 402.693 190.582C401.011 190.762 401.04 193.363 402.722 193.214ZM375.81 195.486C375.576 195.563 375.375 195.72 375.24 195.931C375.105 196.143 375.045 196.395 375.068 196.647C375.092 196.899 375.199 197.134 375.371 197.315C375.543 197.495 375.769 197.61 376.013 197.639C378.13 197.639 392.601 195.008 395.066 194.649C396.487 194.38 395.936 192.257 394.573 192.466C387.091 193.572 381.523 194.35 375.81 195.486ZM368.299 196.413C361.078 197.728 353.799 198.506 346.897 199.194C345.389 199.373 345.447 201.765 346.897 201.645C354.202 201.039 361.471 200.041 368.676 198.655C368.819 198.63 368.955 198.576 369.078 198.496C369.2 198.416 369.306 198.312 369.39 198.19C369.473 198.067 369.533 197.929 369.564 197.784C369.596 197.638 369.6 197.487 369.575 197.34C369.55 197.193 369.498 197.052 369.42 196.925C369.342 196.799 369.242 196.69 369.123 196.604C369.005 196.518 368.871 196.457 368.729 196.424C368.588 196.391 368.442 196.387 368.299 196.413ZM156.425 302.976C157.701 302.976 157.759 301.123 156.425 300.943C150.541 300.04 144.56 300.04 138.677 300.943C138.398 301.007 138.153 301.176 137.991 301.418C137.828 301.66 137.76 301.956 137.8 302.247C137.841 302.538 137.986 302.803 138.208 302.988C138.43 303.173 138.711 303.265 138.996 303.246C144.786 302.623 150.619 302.532 156.425 302.976ZM413.916 301.392C413.675 301.47 413.468 301.631 413.328 301.847C413.188 302.064 413.125 302.324 413.149 302.583C413.173 302.842 413.282 303.085 413.459 303.271C413.635 303.456 413.868 303.574 414.119 303.604C414.409 303.604 429.692 303.156 433.375 303.604C434.361 303.754 434.68 302.199 433.694 302.05C427.131 301.26 420.515 301.04 413.916 301.392ZM405.999 303.754C406.23 303.754 406.451 303.659 406.614 303.491C406.777 303.323 406.869 303.095 406.869 302.857C406.869 302.619 406.777 302.391 406.614 302.223C406.451 302.054 406.23 301.96 405.999 301.96C401.725 301.674 397.432 301.986 393.239 302.887C391.992 303.156 392.34 305.04 393.529 305.04C397.619 304.089 401.807 303.657 405.999 303.754ZM472.003 340.86C471.771 342.056 473.453 342.803 473.946 341.637C476.44 335.837 477.687 326.956 474.555 320.707C473.946 319.511 472.206 320.528 472.786 321.724C476.295 328.9 472.931 336.225 472.003 340.86ZM121.799 430.56C117.719 434.055 114.306 438.303 111.736 443.088C111.679 443.186 111.641 443.295 111.625 443.408C111.608 443.521 111.614 443.637 111.641 443.748C111.695 443.972 111.834 444.165 112.026 444.284C112.218 444.403 112.448 444.438 112.666 444.382C112.884 444.326 113.071 444.183 113.186 443.985C115.839 439.477 119.235 435.48 123.22 432.174C124.38 431.307 122.959 429.752 121.799 430.56ZM141.171 413.009C137.197 416.073 133.42 419.399 129.861 422.965C129.688 423.148 129.592 423.393 129.595 423.649C129.598 423.904 129.699 424.147 129.875 424.326C130.052 424.504 130.291 424.603 130.538 424.6C130.786 424.597 131.022 424.493 131.195 424.311C132.819 422.547 141.548 415.52 142.418 414.773C143.288 414.025 142.244 412.62 141.171 413.009ZM149.871 407.567C150.48 407.567 148.682 408.165 159.499 400.809C159.725 400.648 159.884 400.407 159.946 400.131C160.008 399.855 159.967 399.566 159.833 399.319C159.699 399.072 159.481 398.886 159.22 398.797C158.96 398.707 158.677 398.721 158.426 398.836C155.23 401.082 152.179 403.539 149.291 406.191C149.194 406.311 149.13 406.455 149.109 406.61C149.087 406.764 149.107 406.921 149.167 407.064C149.228 407.207 149.325 407.33 149.45 407.419C149.574 407.508 149.72 407.559 149.871 407.567Z" fill="white"/>
<path d="M164.69 395.726C165.444 396.055 164.951 395.726 174.086 389.746C173.498 397.254 173.605 404.803 174.405 412.291C169.88 409.755 165.539 406.888 161.413 403.709C160.63 403.081 159.586 404.218 160.398 404.905C164.905 408.887 169.759 412.43 174.898 415.49C178.699 445.255 193.428 472.383 216.049 491.286C205.667 493.798 199.113 495.203 196.561 495.472C195.459 495.472 195.459 497.326 196.561 497.326C199.084 497.326 215.15 494.097 218.543 493.379C260.187 527.555 314.939 524.206 354.843 492.722C362.832 494.899 370.95 496.537 379.145 497.625C379.4 497.606 379.639 497.496 379.824 497.314C380.008 497.132 380.126 496.89 380.157 496.629C380.187 496.368 380.129 496.104 379.993 495.883C379.856 495.661 379.649 495.495 379.406 495.413C375.81 494.785 365.718 492.811 357.018 490.958C378.836 473.142 393.376 447.534 397.763 419.198C398.865 418.48 399.938 417.703 400.982 416.895C402.026 416.088 400.982 414.204 399.851 414.952L398.198 415.998C401.736 384.244 390.89 352.61 371.721 328.84C377.173 322.65 380.972 315.325 378.739 307.192C381.487 306.328 384.287 305.649 387.12 305.159C388.396 304.98 387.932 303.036 386.714 303.215C383.777 303.603 380.87 304.202 378.014 305.009C375.896 299.595 372.258 294.955 367.567 291.685C362.876 288.414 357.345 286.661 351.682 286.651C356.315 281.629 359.714 275.537 361.596 268.884C363.478 262.231 363.787 255.21 362.499 248.409C357.134 222.994 337.965 198.835 313.837 184.931C314.428 181.566 314.249 178.106 313.315 174.825C312.677 171.835 310.763 170.818 308.53 169.323C307.37 168.546 306.268 167.828 305.05 167.111C308.25 161.977 309.924 155.99 309.864 149.888C316.389 149.23 316.621 139.423 309.458 137.928C316.737 102.706 253.546 96.726 257.258 139.064C255.971 139.443 254.818 140.198 253.938 141.238C253.058 142.278 252.489 143.559 252.299 144.925C252.127 145.861 252.182 146.827 252.459 147.737C252.735 148.646 253.225 149.472 253.884 150.14C254.544 150.808 255.353 151.298 256.239 151.567C257.126 151.836 258.064 151.876 258.969 151.682C258.703 155.554 259.486 159.426 261.231 162.865C259.78 163.209 258.43 163.903 257.29 164.891C256.151 165.879 255.255 167.131 254.677 168.546C253.392 172.319 253.141 176.385 253.952 180.297C230.897 191.141 212.464 210.274 202.1 234.117C193.893 253.402 197.895 267.515 212.395 282.226C205.901 280.066 198.883 280.288 192.53 282.854C188.546 284.621 184.982 287.261 182.088 290.592C179.193 293.922 177.037 297.862 175.768 302.139C172.979 301.679 170.146 301.559 167.329 301.78C167.137 301.818 166.963 301.923 166.837 302.079C166.712 302.234 166.644 302.43 166.644 302.632C166.644 302.835 166.712 303.03 166.837 303.186C166.963 303.342 167.137 303.447 167.329 303.485C170.001 303.367 172.673 303.69 175.246 304.441C173.245 317.029 183.598 327.674 193.661 335.149C182.861 350.277 176.21 368.124 174.405 386.816C171.002 388.954 167.72 391.29 164.574 393.812C164.409 393.913 164.273 394.06 164.183 394.235C164.093 394.41 164.052 394.608 164.064 394.806C164.076 395.004 164.141 395.195 164.251 395.357C164.362 395.519 164.514 395.647 164.69 395.726ZM292.899 175.214L294.117 174.825C294.784 175.542 296.582 177.157 297.684 178.114C289.071 182.778 278.399 182.39 267.263 176.798C268.51 175.632 270.54 173.509 271.294 172.612C273.288 173.4 275.321 174.078 277.384 174.645C278.231 175.939 279.362 177.009 280.686 177.766C282.01 178.523 283.489 178.946 285.001 179.002C286.514 179.057 288.019 178.743 289.391 178.084C290.764 177.426 291.966 176.442 292.899 175.214ZM269.699 171.775C268.713 172.911 266.509 175.333 265.784 175.961C264.972 175.503 264.16 175.024 263.348 174.526C263.191 174.427 263.001 174.396 262.822 174.441C262.642 174.486 262.487 174.602 262.391 174.765C262.295 174.928 262.266 175.123 262.309 175.308C262.353 175.493 262.466 175.653 262.623 175.752C269.67 180.416 276.543 183.944 284.866 183.944C288.238 184.109 291.603 183.494 294.714 182.144C297.825 180.793 300.604 178.742 302.846 176.14C302.965 176.014 303.031 175.843 303.028 175.666C303.025 175.49 302.955 175.321 302.832 175.199C302.709 175.076 302.543 175.008 302.372 175.011C302.201 175.014 302.037 175.087 301.918 175.214C301.133 175.882 300.31 176.501 299.453 177.067C298.67 176.38 296.872 174.885 296.002 174.077C298.953 172.929 301.632 171.145 303.861 168.845C306.761 170.113 309.362 172.01 311.488 174.406C312.554 177.664 312.725 181.161 311.981 184.512C309.313 193.004 287.737 201.406 265.581 189.476C257.78 185.439 254.503 182.12 255.895 172.074C255.999 170.298 256.661 168.605 257.78 167.251C258.9 165.897 260.417 164.956 262.101 164.569C264.012 167.586 266.624 170.064 269.699 171.775ZM293.305 197.34C298.032 196.742 309.255 194.529 313.228 186.964C336.283 200.12 360.324 229.542 360.875 256.362C361.074 262.257 359.931 268.118 357.54 273.476C355.148 278.834 351.572 283.541 347.1 287.219C342.998 287.997 339.068 289.537 335.5 291.764C338.052 251.13 338.139 253.581 337.849 253.282C337.559 252.983 333.151 252.954 325.959 252.774C326.858 251.608 329.265 248.319 329.816 247.661C329.951 247.515 330.023 247.319 330.018 247.117C330.013 246.915 329.93 246.724 329.787 246.585C329.645 246.446 329.455 246.371 329.259 246.377C329.063 246.382 328.878 246.468 328.743 246.615C326.912 248.711 324.976 250.707 322.943 252.595H322.334C323.074 243.526 323.268 234.419 322.914 225.326C322.914 224.608 321.696 224.608 321.754 225.326C322.044 229.602 320.101 248.768 319.869 252.445C298.264 251.997 262.246 251.608 240.496 251.399C237.831 242.102 236.703 232.408 237.161 222.725C237.161 221.708 235.769 221.708 235.682 222.725C234.745 232.357 235.521 242.084 237.973 251.429H237.364C234.458 248.433 231.7 245.29 229.099 242.01C228.994 241.86 228.838 241.757 228.662 241.718C228.487 241.68 228.304 241.711 228.148 241.804C227.993 241.897 227.877 242.046 227.822 242.222C227.768 242.398 227.778 242.589 227.852 242.758C228.171 243.386 231.651 248.738 233.942 251.548H222.69C221.849 251.548 222.11 251.548 222.052 252.236C221.762 255.615 222.806 274.272 223.618 287.548C221.87 286.423 220.048 285.424 218.166 284.558C203.231 269.428 195.285 257.648 203.405 237.435C213.099 213.092 231.363 193.428 254.532 182.39C257.78 189.536 274.281 199.672 293.305 197.34ZM223.908 253.671C227.214 253.671 328.946 254.598 336.051 255.256C334.688 267.036 332.165 301.84 331.295 313.531H324.944C321.348 316.73 294.668 339.574 292.754 341.248C292.087 341.786 293.305 342.235 296.176 344.896C297.982 346.263 299.496 347.998 300.624 349.994C301.751 351.99 302.468 354.203 302.73 356.497C302.738 356.603 302.784 356.702 302.859 356.774C302.934 356.846 303.033 356.886 303.136 356.886C313.46 357.334 322.189 366.813 315.026 372.673C308.443 378.055 298.264 372.673 293.218 367.71C297.771 361.58 300.439 356.228 295.335 350.697C294.726 350.039 288.172 344.537 279.849 337.541C248.326 311.019 250.849 312.514 250.443 312.514C248.819 312.514 231.593 311.288 228.49 311.109C226.199 291.973 224.517 264.017 223.908 253.671ZM254.242 371.597C249.979 371.926 242.816 372.494 239.742 368.039C237.741 365.049 240.728 361.55 243.947 360.594C250.994 363.225 262.072 366.902 265.668 368.069C262.09 369.928 258.222 371.122 254.242 371.597ZM239.162 370.999C242.062 373.989 246.992 374.348 250.936 374.288C257.371 374.255 263.684 372.471 269.235 369.115C275.586 371.029 281.879 372.673 288.433 374.108C288.512 374.136 288.597 374.137 288.675 374.11C288.754 374.083 288.822 374.03 288.868 373.959C289.97 372.554 291.043 370.969 292.029 369.623C298.699 376.022 309.835 380.238 316.679 374.796C321.725 370.76 320.942 363.853 315.896 359.577C339.908 352.311 359.019 341.876 369.749 330.903C379.764 342.742 387.175 356.675 391.475 371.745C395.775 386.815 396.862 402.667 394.66 418.211C388.534 422.343 382.193 426.126 375.665 429.543C375.508 429.627 375.382 429.763 375.31 429.929C375.237 430.096 375.221 430.283 375.265 430.46C375.309 430.637 375.409 430.794 375.55 430.904C375.692 431.014 375.865 431.072 376.042 431.068C376.419 431.068 388.019 425.297 394.138 421.56C389.13 448.579 375.067 472.922 354.408 490.33C349.739 489.313 345.708 488.356 343.794 487.758C342.75 487.399 342.286 489.014 343.301 489.403C345.07 490.061 348.376 490.987 352.32 492.034C333.614 506.73 310.767 514.729 287.25 514.815C263.732 514.902 240.83 507.071 222.023 492.512C225.499 491.763 228.92 490.764 232.26 489.522C233.536 488.954 232.753 487.011 231.448 487.31L219.384 490.3C197.282 472.009 182.471 445.98 177.769 417.164L178.349 417.433C179.683 418.031 180.727 416.148 179.48 415.4L177.334 414.115C173.5 386.824 179.955 359.057 195.372 336.524C209.814 346.05 225.29 353.798 241.482 359.607C236.9 361.999 235.363 367.142 239.162 370.999ZM308.356 149.111C307.747 155.091 306.877 161.071 303.281 165.675C301.309 168.217 297.104 171.984 293.653 172.074C291.362 172.074 290.55 170.699 289.071 169.084C287.128 166.752 286.171 165.526 285.127 165.705C282.807 166.004 283.213 170.519 279.501 172.762C278.37 173.42 274.426 172.253 271.41 170.758C267.875 168.951 264.96 166.071 263.058 162.506C261.156 158.941 260.356 154.862 260.767 150.815C260.767 150.098 259.752 149.649 259.346 149.858C258.716 150.083 258.04 150.138 257.384 150.018C256.727 149.898 256.111 149.607 255.594 149.173C255.077 148.739 254.676 148.176 254.429 147.537C254.183 146.898 254.098 146.205 254.184 145.523C255.286 139.543 261.782 141.038 263.493 144.506C263.55 144.594 263.636 144.658 263.734 144.687C263.832 144.716 263.937 144.709 264.031 144.666C264.124 144.623 264.2 144.547 264.245 144.453C264.29 144.358 264.301 144.25 264.276 144.147C263.108 141.004 262.963 137.554 263.862 134.318C264.762 131.082 266.658 128.235 269.264 126.207C273.407 129.173 278.33 130.762 283.373 130.762C288.416 130.762 293.339 129.173 297.481 126.207C303.078 130.692 303.281 140.021 302.875 143.28C302.871 143.359 302.884 143.438 302.914 143.511C302.944 143.584 302.991 143.648 303.049 143.699C303.542 144.088 304.354 143.071 304.76 142.593C305.282 141.758 306.03 141.1 306.912 140.701C307.794 140.302 308.77 140.18 309.719 140.35C310.667 140.493 311.531 140.989 312.148 141.744C312.765 142.5 313.092 143.462 313.067 144.45C313.042 145.437 312.667 146.38 312.012 147.102C311.358 147.823 310.47 148.272 309.516 148.363C309.313 148.184 308.414 148.483 308.356 149.111Z" fill="white"/>
<path d="M266.8 477.055C267.09 477.772 266.8 477.443 266.8 477.055C258.608 480.472 250.135 483.123 241.483 484.978C240.439 485.187 240.787 486.772 241.831 486.652C250.789 485.613 259.519 483.057 267.67 479.088C268.859 478.4 268.076 476.576 266.8 477.055ZM307.4 464.347C308.096 464.347 331.586 454.839 333.877 453.314C335.008 452.537 334.225 450.533 332.891 451.042C330.542 451.939 311.866 461.028 307.197 462.732C307.027 462.799 306.883 462.924 306.789 463.085C306.696 463.247 306.658 463.436 306.681 463.622C306.705 463.809 306.788 463.982 306.919 464.113C307.049 464.245 307.219 464.327 307.4 464.347ZM343.302 448.5C344.056 448.5 363.602 439.321 365.429 437.886C366.328 437.168 365.719 435.464 364.53 435.942C362.761 436.63 346.724 444.912 343.041 446.497C342.835 446.586 342.663 446.742 342.552 446.942C342.441 447.141 342.397 447.373 342.427 447.602C342.456 447.83 342.558 448.041 342.716 448.204C342.875 448.366 343.08 448.47 343.302 448.5ZM400.2 388.401C401.824 389.477 407.856 394.381 409.48 395.457C409.728 395.606 410.02 395.656 410.302 395.6C410.584 395.544 410.836 395.384 411.013 395.151C411.189 394.918 411.278 394.627 411.263 394.332C411.248 394.036 411.129 393.756 410.93 393.544C409.393 392.198 402.752 387.923 401.099 386.906C400.907 386.783 400.675 386.744 400.455 386.797C400.234 386.851 400.044 386.992 399.924 387.19C399.805 387.388 399.767 387.627 399.819 387.854C399.871 388.081 400.008 388.278 400.2 388.401ZM436.595 413.218C435.696 412.471 434.478 413.816 435.406 414.593C437.465 416.358 445.643 423.833 447.905 425.417C448.145 425.54 448.419 425.572 448.679 425.511C448.94 425.449 449.172 425.295 449.336 425.077C449.5 424.859 449.586 424.589 449.579 424.313C449.571 424.037 449.472 423.772 449.297 423.563C447.441 421.59 439.002 415.191 436.595 413.218ZM455.3 430.381C455.127 430.206 454.894 430.11 454.652 430.113C454.41 430.115 454.179 430.217 454.009 430.396C453.84 430.574 453.747 430.814 453.749 431.064C453.752 431.313 453.851 431.552 454.024 431.726C457.665 435.525 460.939 439.68 463.797 444.135C464.725 445.48 466.842 444.135 465.943 442.759C462.915 438.188 459.339 434.029 455.3 430.381ZM414.7 499.33C410.814 499.33 394.081 498.194 389.963 497.327C389.774 497.279 389.575 497.311 389.41 497.414C389.244 497.518 389.125 497.686 389.078 497.88C389.032 498.074 389.063 498.279 389.163 498.45C389.264 498.621 389.427 498.744 389.615 498.792C397.898 500.397 406.28 501.397 414.7 501.782C415.015 501.782 415.318 501.653 415.541 501.423C415.764 501.193 415.889 500.881 415.889 500.556C415.889 500.231 415.764 499.919 415.541 499.689C415.318 499.459 415.015 499.33 414.7 499.33ZM311.054 477.832C310.039 477.324 309.198 478.878 310.242 479.417C317.547 483.221 325.369 485.862 333.442 487.25C335.008 487.549 335.617 485.068 334.022 484.799C326.088 483.592 318.357 481.247 311.054 477.832ZM277.066 475.769C280.691 474.962 288.086 472.779 289.246 472.599C290.348 473.048 297.424 475.799 301.194 476.726C301.476 476.79 301.772 476.741 302.02 476.588C302.268 476.434 302.45 476.189 302.528 475.902C302.606 475.614 302.575 475.307 302.44 475.043C302.305 474.78 302.077 474.579 301.803 474.483C298.903 473.407 296.003 472.51 292.784 471.493C295.122 470.692 297.392 469.692 299.57 468.503C299.728 468.328 299.834 468.11 299.873 467.874C299.912 467.639 299.884 467.396 299.792 467.177C299.699 466.958 299.547 466.771 299.353 466.64C299.159 466.509 298.932 466.44 298.7 466.44C295.452 467.576 292.262 469.011 289.101 470.267C285.505 468.952 282.199 467.606 279.038 466.171C277.994 465.693 277.153 467.277 278.226 467.786C280.865 469.071 283.504 470.297 286.114 471.403C283.031 472.507 279.895 473.445 276.718 474.214C276.585 474.314 276.483 474.452 276.425 474.612C276.367 474.771 276.356 474.944 276.393 475.11C276.43 475.276 276.514 475.427 276.634 475.544C276.753 475.661 276.904 475.739 277.066 475.769ZM147.262 392.408C144.362 390.075 133.487 380.448 131.08 377.816C130.297 376.949 128.992 378.235 129.775 379.102C134.508 384.843 139.914 389.955 145.87 394.321C147.03 395.129 148.364 393.305 147.262 392.408ZM112.81 533.894C111 517.388 107.739 501.085 103.066 485.187C105.711 489.312 109.791 492.234 114.463 493.35C114.663 493.437 114.888 493.439 115.089 493.355C115.291 493.271 115.451 493.108 115.536 492.902C115.621 492.695 115.622 492.463 115.541 492.255C115.459 492.048 115.301 491.882 115.101 491.795C111.389 489.493 105.676 487.161 103.907 481.569C104.875 479.748 105.113 477.609 104.571 475.608C104.029 473.608 102.75 471.906 101.007 470.865C102.05 464.515 104.255 458.427 107.503 452.925C107.88 452.178 106.894 451.4 106.343 452.058C102.204 457.378 99.6734 463.835 99.0639 470.626C98.3089 470.682 97.5662 470.854 96.8599 471.134C89.1765 450.659 78.2605 431.634 64.5539 414.833C65.0816 413.905 65.2866 412.82 65.1351 411.756C64.9836 410.692 64.4846 409.713 63.7207 408.982C62.9567 408.25 61.9734 407.808 60.9333 407.731C59.8931 407.653 58.8584 407.943 57.9999 408.554C57.0204 409.241 56.3083 410.263 55.9898 411.44C55.6714 412.616 55.767 413.871 56.2599 414.982C56.5884 415.575 57.0298 416.092 57.5576 416.504C58.0854 416.916 58.6886 417.213 59.3309 417.378C59.9732 417.543 60.6412 417.572 61.2946 417.463C61.948 417.355 62.5734 417.111 63.1329 416.746C76.5716 433.359 87.3415 452.084 95.0329 472.211C90.3059 476.516 94.4239 484.589 100.369 483.932C105.271 500.385 108.688 517.271 110.577 534.373C109.707 534.848 109.033 535.632 108.678 536.579C108.323 537.526 108.312 538.573 108.646 539.528C108.98 540.483 109.637 541.282 110.497 541.777C111.356 542.273 112.36 542.432 113.324 542.225C114.288 542.019 115.148 541.46 115.745 540.653C116.341 539.845 116.636 538.843 116.573 537.83C116.51 536.817 116.095 535.861 115.404 535.138C114.713 534.415 113.792 533.973 112.81 533.894ZM62.9879 412.62C63.0897 413.014 63.1024 413.427 63.0248 413.827C62.9472 414.227 62.7815 414.603 62.5404 414.927C62.2994 415.25 61.9895 415.512 61.6346 415.692C61.2798 415.872 60.8895 415.966 60.4939 415.966C60.0983 415.966 59.708 415.872 59.3532 415.692C58.9983 415.512 58.6884 415.25 58.4474 414.927C58.2063 414.603 58.0406 414.227 57.963 413.827C57.8854 413.427 57.8981 413.014 57.9999 412.62C57.8981 412.226 57.8854 411.813 57.963 411.413C58.0406 411.013 58.2063 410.637 58.4474 410.313C58.6884 409.99 58.9983 409.728 59.3532 409.548C59.708 409.368 60.0983 409.274 60.4939 409.274C60.8895 409.274 61.2798 409.368 61.6346 409.548C61.9895 409.728 62.2994 409.99 62.5404 410.313C62.7815 410.637 62.9472 411.013 63.0248 411.413C63.1024 411.813 63.0897 412.226 62.9879 412.62ZM115.188 537.931C115.188 540.921 110.403 540.921 110.403 537.931C110.403 534.941 115.072 535.21 115.072 538.2L115.188 537.931ZM102.486 479.327C100.92 484.32 95.0909 480.822 95.1779 476.756C95.1779 473.168 100.021 470.776 101.848 474.214C102.316 474.987 102.606 475.861 102.697 476.768C102.787 477.675 102.676 478.591 102.37 479.447L102.486 479.327ZM524.262 359.069C524.247 358.205 524 357.363 523.549 356.635C523.097 355.908 522.458 355.324 521.703 354.949C520.948 354.574 520.107 354.422 519.274 354.511C518.441 354.599 517.647 354.925 516.983 355.451C500.663 345.6 486.629 332.191 475.861 316.163C476.648 315.231 477.189 314.106 477.433 312.897C477.677 311.687 477.615 310.433 477.253 309.256C476.976 308.342 476.474 307.518 475.795 306.864C475.116 306.21 474.285 305.749 473.382 305.526C472.479 305.303 471.535 305.326 470.643 305.592C469.75 305.858 468.94 306.358 468.292 307.043C454.336 287.578 444.361 265.392 438.973 241.831C439.517 241.196 439.85 240.397 439.923 239.553C439.996 238.708 439.805 237.862 439.379 237.137C439.058 236.388 438.51 235.768 437.817 235.369C437.125 234.97 436.324 234.814 435.538 234.926C434.752 235.037 434.022 235.41 433.46 235.987C432.897 236.563 432.531 237.314 432.419 238.124C432.235 238.804 432.233 239.524 432.413 240.205C432.593 240.887 432.948 241.506 433.442 241.996C433.935 242.487 434.548 242.83 435.216 242.991C435.883 243.151 436.58 243.122 437.233 242.908C442.576 266.74 452.713 289.15 466.987 308.688C466.682 309.196 466.457 309.751 466.32 310.332C462.637 308.508 444.338 302.528 442.424 303.066C441.612 303.306 441.989 304.322 442.424 304.442C450.431 306.723 458.296 309.509 465.972 312.784C466.134 313.699 466.496 314.565 467.031 315.314C467.566 316.064 468.259 316.678 469.059 317.11C469.858 317.543 470.742 317.782 471.645 317.809C472.547 317.837 473.443 317.652 474.266 317.269C487.49 336.644 501.033 349.71 515.649 357.215C515.336 357.941 515.203 358.735 515.262 359.527C515.322 360.319 515.571 361.083 515.988 361.75C516.406 362.418 516.977 362.968 517.652 363.351C518.327 363.733 519.084 363.937 519.854 363.943C520.468 363.973 521.082 363.865 521.652 363.626C522.222 363.388 522.734 363.024 523.154 362.56C523.573 362.096 523.89 361.543 524.081 360.94C524.273 360.338 524.334 359.699 524.262 359.069ZM517.824 360.564C517.575 360.185 517.426 359.745 517.392 359.289C517.358 358.832 517.441 358.374 517.631 357.961C517.822 357.547 518.113 357.192 518.478 356.93C518.842 356.668 519.267 356.509 519.709 356.468C520.404 356.491 521.064 356.79 521.55 357.303C522.036 357.815 522.312 358.502 522.319 359.219C522.32 359.763 522.149 360.293 521.832 360.729C521.515 361.164 521.069 361.482 520.562 361.634C520.055 361.786 519.514 361.764 519.02 361.571C518.526 361.378 518.106 361.024 517.824 360.564ZM473.396 315.535C472.5 315.833 471.533 315.812 470.649 315.476C469.766 315.14 469.017 314.508 468.524 313.681C468.253 313.016 468.141 312.294 468.198 311.575C468.255 310.856 468.48 310.162 468.853 309.551C469.225 308.941 469.736 308.432 470.34 308.069C470.944 307.705 471.624 307.497 472.323 307.462C476.035 307.462 476.673 314.129 473.396 315.535ZM438.045 239.2C438.078 239.482 438.054 239.767 437.972 240.038C437.89 240.309 437.754 240.559 437.572 240.772C437.389 240.984 437.165 241.154 436.914 241.271C436.664 241.387 436.392 241.448 436.116 241.448C435.841 241.448 435.569 241.387 435.318 241.271C435.067 241.154 434.843 240.984 434.661 240.772C434.479 240.559 434.342 240.309 434.261 240.038C434.179 239.767 434.154 239.482 434.188 239.2C434.154 238.918 434.179 238.633 434.261 238.362C434.342 238.091 434.479 237.841 434.661 237.628C434.843 237.416 435.067 237.246 435.318 237.129C435.569 237.013 435.841 236.952 436.116 236.952C436.392 236.952 436.664 237.013 436.914 237.129C437.165 237.246 437.389 237.416 437.572 237.628C437.754 237.841 437.89 238.091 437.972 238.362C438.054 238.633 438.078 238.918 438.045 239.2ZM484.3 482.496C484.38 482.287 484.386 482.056 484.317 481.843C484.248 481.629 484.109 481.448 483.923 481.33C482.473 480.403 480.095 481.958 479.689 483.722C480.675 483.812 483.691 483.692 484.3 482.496Z" fill="white"/>
<path d="M477.399 462.733C475.514 458.62 473.393 454.626 471.048 450.773C470.918 450.577 470.721 450.439 470.496 450.389C470.271 450.338 470.036 450.378 469.839 450.501C469.642 450.623 469.498 450.819 469.437 451.048C469.376 451.277 469.402 451.521 469.511 451.73C471.466 455.273 473.162 458.961 474.586 462.763C471.35 463.126 468.274 464.401 465.694 466.448C463.115 468.495 461.132 471.235 459.964 474.367C458.796 477.499 458.487 480.902 459.071 484.204C459.655 487.505 461.11 490.577 463.276 493.082C453.241 497.108 442.628 499.391 431.869 499.839C431.676 499.876 431.502 499.982 431.377 500.138C431.252 500.293 431.183 500.489 431.183 500.691C431.183 500.893 431.252 501.089 431.377 501.245C431.502 501.4 431.676 501.506 431.869 501.543C443.341 501.795 454.74 499.617 465.364 495.145C467.537 496.922 470.085 498.147 472.803 498.72C475.521 499.293 478.331 499.197 481.007 498.442C483.682 497.686 486.147 496.291 488.202 494.37C490.257 492.449 491.845 490.056 492.836 487.385C493.827 484.714 494.193 481.839 493.906 478.994C493.619 476.15 492.686 473.415 491.183 471.011C489.679 468.608 487.648 466.603 485.253 465.16C482.858 463.716 480.168 462.875 477.399 462.703V462.733ZM473.716 490.361C473.426 488.358 473.31 486.324 472.962 484.381H468.699C468.438 486.145 468.438 487.909 468.177 489.673C468.161 489.799 468.122 489.92 468.062 490.03C468.001 490.14 467.92 490.237 467.823 490.315C467.726 490.392 467.615 490.45 467.497 490.483C467.378 490.517 467.254 490.526 467.133 490.51C467.011 490.495 466.893 490.454 466.786 490.392C466.68 490.329 466.586 490.245 466.51 490.146C466.435 490.046 466.379 489.931 466.347 489.809C466.314 489.687 466.305 489.56 466.321 489.434C466.321 487.461 467.916 474.903 468.235 473.138C468.641 470.657 469.917 470.447 470.642 470.537C472.15 470.717 472.556 472.331 472.875 473.527C473.716 476.726 475.775 486.474 476.297 489.703C476.529 491.318 473.977 491.975 473.716 490.361ZM486.737 488.059C482.068 491.407 476.181 487.401 478.037 482.766C479.226 479.776 483.837 477.743 485.78 480.853C486.013 481.355 486.128 481.908 486.115 482.465C486.101 483.022 485.96 483.568 485.703 484.058C485.445 484.548 485.079 484.969 484.634 485.284C484.188 485.6 483.677 485.803 483.141 485.876C482.178 486.006 481.203 486.006 480.241 485.876C480.608 486.294 481.039 486.648 481.517 486.922C484.417 488.178 486.36 485.936 486.94 487.191C486.985 487.318 486.99 487.456 486.953 487.585C486.916 487.714 486.841 487.828 486.737 487.909V488.059Z" fill="white"/>
<path d="M470.205 473.704C469.77 475.977 469.277 480.043 469.045 481.927H472.496C472.177 480.402 471.336 476.126 470.756 473.794C470.669 473.405 470.263 473.316 470.205 473.704ZM218.949 428.944C217.209 427.868 213.381 427.748 213.149 430.11C212.975 431.426 213.149 436.688 213.149 438.093C214.472 438.054 215.773 437.733 216.971 437.152C218.168 436.571 219.237 435.741 220.109 434.715C220.435 434.269 220.666 433.758 220.785 433.213C220.903 432.669 220.908 432.105 220.798 431.558C220.688 431.012 220.467 430.496 220.148 430.045C219.829 429.594 219.42 429.219 218.949 428.944Z" fill="white"/>
<path d="M268.51 461.446C260.494 458.419 252.652 454.925 245.02 450.981C246.543 447.771 247.439 444.283 247.655 440.717C247.871 437.15 247.403 433.575 246.279 430.194C245.154 426.814 243.395 423.695 241.102 421.015C238.809 418.336 236.026 416.149 232.913 414.578C229.799 413.007 226.416 412.084 222.957 411.862C219.498 411.639 216.03 412.121 212.751 413.28C209.473 414.439 206.448 416.253 203.849 418.618C201.25 420.982 199.128 423.851 197.605 427.061C194.096 425.135 190.689 423.02 187.397 420.722C186.498 420.124 185.657 421.53 186.498 422.158C190.413 425.148 193.69 427.241 196.735 429.154C186.324 460.489 226.779 480.552 244.005 452.805C251.565 457.231 259.658 460.609 268.075 462.852C268.245 462.877 268.418 462.84 268.564 462.746C268.71 462.652 268.819 462.508 268.871 462.339C268.923 462.17 268.916 461.988 268.85 461.824C268.783 461.661 268.663 461.527 268.51 461.446ZM222.11 437.526C219.761 439.847 216.662 441.189 213.41 441.294V449.666C213.41 450.007 213.279 450.334 213.045 450.575C212.811 450.816 212.494 450.951 212.163 450.951C211.832 450.951 211.515 450.816 211.281 450.575C211.047 450.334 210.916 450.007 210.916 449.666C210.916 448.23 210.423 436.36 210.394 435.403C210.394 432.413 209.292 427.3 213.294 425.656C220.66 422.457 227.62 430.859 221.965 437.496L222.11 437.526ZM235.45 446.496C235.044 451.28 228.809 453.343 225.097 450.503C224.832 450.288 224.655 449.979 224.598 449.636C224.541 449.294 224.61 448.942 224.79 448.648C224.97 448.355 225.249 448.14 225.574 448.046C225.898 447.953 226.245 447.986 226.547 448.141C227.387 448.721 228.396 448.981 229.401 448.877C230.406 448.774 231.346 448.312 232.057 447.573C232.927 446.646 232.579 444.792 231.158 445.001C230.056 445.326 228.908 445.447 227.765 445.36C227.186 445.221 226.649 444.937 226.203 444.531C225.757 444.126 225.415 443.613 225.208 443.039C225.001 442.464 224.936 441.845 225.017 441.238C225.099 440.631 225.326 440.054 225.677 439.559C226.167 438.846 226.812 438.262 227.562 437.854C228.311 437.446 229.143 437.226 229.99 437.211C230.838 437.197 231.676 437.388 232.438 437.77C233.201 438.152 233.865 438.714 234.377 439.41C235.247 440.576 233.449 441.981 232.579 440.845C232.174 440.36 231.637 440.009 231.038 439.839C230.439 439.669 229.805 439.686 229.215 439.888C226.692 440.845 228.287 443.416 229.969 442.878C230.346 442.759 235.682 441.892 235.305 446.377L235.45 446.496ZM470.263 347.049C469.324 349.26 468.248 351.407 467.044 353.477C464.772 350.222 461.83 347.524 458.428 345.578C455.027 343.632 451.25 342.485 447.369 342.22C443.487 341.954 439.597 342.577 435.976 344.043C432.355 345.51 429.093 347.783 426.424 350.701C423.755 353.619 421.745 357.109 420.537 360.922C419.329 364.735 418.954 368.775 419.438 372.755C419.922 376.735 421.254 380.555 423.337 383.942C425.421 387.329 428.205 390.199 431.49 392.347C428.59 395.008 422.587 399.733 421.369 400.719L419.223 399.703C418.266 399.254 417.483 400.719 418.469 401.198C418.916 401.413 419.352 401.652 419.774 401.915C416.123 404.646 412.338 407.181 408.435 409.51C408.231 409.629 408.082 409.826 408.019 410.059C407.956 410.292 407.986 410.541 408.102 410.751C408.217 410.961 408.408 411.115 408.634 411.18C408.86 411.244 409.101 411.214 409.305 411.095C414.09 408.344 418.208 405.743 421.833 403.201C424.48 405.099 426.946 407.251 429.199 409.63C429.426 409.813 429.711 409.906 429.999 409.889C430.288 409.872 430.56 409.748 430.766 409.539C430.972 409.331 431.098 409.052 431.119 408.755C431.14 408.458 431.055 408.163 430.881 407.925C428.62 405.727 426.185 403.727 423.602 401.945C425.371 400.63 431.026 396.294 433.868 393.723C438.939 396.296 444.677 397.124 450.239 396.086C455.8 395.048 460.893 392.199 464.767 387.956C468.642 383.714 471.095 378.302 471.766 372.516C472.436 366.73 471.29 360.874 468.494 355.81C469.986 353.241 471.23 350.527 472.206 347.707C472.699 346.421 470.756 345.793 470.263 347.049ZM445.874 380.357C445.292 378.337 444.837 376.279 444.511 374.198L438.392 374.826C438.044 376.71 437.696 378.593 437.406 380.477C437.116 382.361 434.738 381.583 434.97 379.969C435.492 375.992 438.595 359.039 439.204 357.424C440.915 353.956 443.496 356.348 445.004 360.265C446.467 366.749 447.609 373.305 448.426 379.909C448.484 380.258 448.405 380.616 448.206 380.905C448.008 381.194 447.706 381.389 447.368 381.449C447.029 381.508 446.682 381.427 446.402 381.222C446.121 381.017 445.932 380.706 445.874 380.357ZM450.833 360.952C450.98 360.599 451.198 360.283 451.472 360.023C451.746 359.763 452.07 359.565 452.424 359.444C452.777 359.322 453.151 359.28 453.522 359.318C453.893 359.356 454.251 359.475 454.574 359.667C454.862 359.866 455.105 360.126 455.286 360.431C455.467 360.736 455.582 361.077 455.624 361.432C455.665 361.787 455.632 362.147 455.525 362.488C455.419 362.828 455.243 363.141 455.009 363.404C454.645 363.865 454.134 364.178 453.568 364.288C453.001 364.397 452.415 364.296 451.914 364.002C451.413 363.708 451.029 363.24 450.831 362.681C450.633 362.123 450.634 361.51 450.833 360.952ZM455.879 380.058C455.874 380.401 455.75 380.731 455.53 380.988C455.31 381.245 455.007 381.412 454.678 381.459C454.348 381.506 454.013 381.43 453.734 381.244C453.454 381.059 453.248 380.776 453.153 380.447C452.921 379.789 452.486 370.58 452.486 369.504C452.486 369.194 452.605 368.898 452.817 368.679C453.029 368.46 453.317 368.338 453.617 368.338C453.917 368.338 454.205 368.46 454.417 368.679C454.629 368.898 454.748 369.194 454.748 369.504C454.835 371.208 455.908 379.55 455.879 380.058Z" fill="white"/>
<path d="M438.973 371.866L444.019 371.298C443.514 367.652 442.659 364.066 441.467 360.594C440.8 363.584 439.582 368.906 438.973 371.866ZM159.5 500.645C157.064 502.14 159.065 506.207 162.4 504.682C162.4 502.708 162.226 501.243 162.168 500.556C161.749 500.349 161.288 500.25 160.823 500.265C160.359 500.281 159.905 500.411 159.5 500.645Z" fill="white"/>
<path d="M187.515 496.848C182.714 497.623 177.871 498.082 173.015 498.224C171.71 474.692 139.056 474.663 137.722 498.224C132.683 497.722 127.725 496.577 122.961 494.815C122.871 494.768 122.773 494.739 122.673 494.731C122.573 494.723 122.472 494.735 122.377 494.767C122.281 494.799 122.193 494.85 122.116 494.917C122.04 494.985 121.977 495.067 121.931 495.159C121.885 495.251 121.858 495.352 121.85 495.455C121.842 495.558 121.854 495.662 121.885 495.761C121.916 495.859 121.965 495.951 122.03 496.03C122.095 496.108 122.175 496.173 122.265 496.22C127.097 498.858 132.391 500.475 137.838 500.975C138.386 505.364 140.467 509.398 143.691 512.32C146.915 515.243 151.061 516.855 155.354 516.855C159.646 516.855 163.792 515.243 167.016 512.32C170.24 509.398 172.321 505.364 172.87 500.975C177.919 500.444 182.934 499.615 187.892 498.493C188.062 498.406 188.199 498.262 188.28 498.085C188.361 497.907 188.381 497.707 188.337 497.516C188.294 497.325 188.189 497.155 188.039 497.034C187.89 496.913 187.705 496.847 187.515 496.848ZM152.715 506.386C152.675 506.589 152.595 506.78 152.479 506.948C152.363 507.116 152.213 507.256 152.041 507.361C151.869 507.465 151.677 507.531 151.478 507.554C151.279 507.576 151.078 507.556 150.888 507.493C150.018 507.224 150.163 506.715 148.771 504.682C148.336 505.43 147.901 506.207 147.495 506.984C147.336 507.252 147.083 507.447 146.789 507.528C146.495 507.609 146.182 507.571 145.914 507.422C145.647 507.273 145.445 507.023 145.35 506.725C145.256 506.426 145.276 506.102 145.407 505.818C145.958 504.742 146.509 503.636 147.118 502.559C146.402 501.791 145.604 501.109 144.74 500.526C144.456 500.321 144.259 500.011 144.189 499.661C144.118 499.311 144.18 498.947 144.361 498.642C144.542 498.337 144.829 498.115 145.163 498.021C145.497 497.926 145.854 497.967 146.161 498.134C149.786 500.436 147.553 500.705 150.308 497.177C151.439 495.742 153.585 497.506 152.657 498.971C152.019 499.988 151.207 501.034 150.511 501.961C151.932 503.845 152.86 505.31 152.686 506.386H152.715ZM165.069 506.745C164.451 507.319 163.721 507.75 162.929 508.008C162.136 508.266 161.299 508.345 160.474 508.24C159.648 508.135 158.855 507.849 158.147 507.4C157.438 506.951 156.832 506.35 156.369 505.639C155.778 504.74 155.465 503.679 155.47 502.594C155.475 501.508 155.799 500.45 156.398 499.557C156.997 498.665 157.843 497.98 158.827 497.593C159.81 497.205 160.884 497.133 161.908 497.387C161.657 494.154 161.57 490.911 161.647 487.669C161.651 487.323 161.779 486.991 162.006 486.736C162.234 486.482 162.544 486.322 162.878 486.289C163.212 486.256 163.546 486.35 163.817 486.555C164.087 486.761 164.275 487.061 164.344 487.4C164.953 491.317 165.417 502.798 165.475 504.114C165.533 504.802 165.823 505.938 165.04 506.745H165.069ZM110.868 329.976C111.39 329.976 111.535 329.976 111.564 329.797C111.564 329.289 110.578 322.561 110.462 321.754C102.226 322.92 103.27 330.754 110.868 329.976Z" fill="white"/>
<path d="M131.37 301.63C127.932 302.115 124.524 302.804 121.162 303.693C118.459 300.986 115.163 298.99 111.553 297.874C107.943 296.759 104.126 296.556 100.424 297.283C96.7226 298.01 93.2452 299.646 90.2865 302.053C87.3277 304.459 84.9747 307.565 83.4266 311.107C81.8784 314.649 81.1806 318.524 81.3923 322.403C81.6039 326.282 82.7188 330.052 84.6426 333.393C86.5663 336.734 89.2424 339.548 92.4442 341.597C95.646 343.646 99.2794 344.869 103.037 345.164C106.309 354.662 112.011 363.072 119.538 369.503C119.607 369.571 119.688 369.625 119.776 369.662C119.865 369.698 119.96 369.716 120.056 369.715C120.151 369.714 120.246 369.693 120.334 369.654C120.421 369.615 120.501 369.558 120.568 369.488C120.634 369.417 120.687 369.333 120.722 369.242C120.757 369.15 120.775 369.052 120.773 368.954C120.772 368.855 120.752 368.758 120.714 368.667C120.676 368.577 120.622 368.495 120.553 368.426C114.275 361.652 109.191 353.8 105.531 345.224C109.902 345.054 114.14 343.632 117.772 341.118C121.403 338.604 124.283 335.097 126.09 330.99C127.896 326.883 128.558 322.338 128 317.865C127.442 313.393 125.687 309.168 122.931 305.666C126.005 304.829 128.731 304.081 131.631 303.513C133.023 303.274 132.53 301.39 131.37 301.63ZM95.178 331.888V309.643C95.2227 309.347 95.3686 309.077 95.5893 308.882C95.81 308.687 96.0909 308.58 96.3815 308.58C96.6721 308.58 96.953 308.687 97.1737 308.882C97.3944 309.077 97.5403 309.347 97.585 309.643C97.585 314.068 98.078 328.898 98.165 331.888C98.0648 332.216 97.866 332.502 97.5975 332.705C97.3289 332.908 97.0045 333.017 96.6715 333.017C96.3385 333.017 96.0141 332.908 95.7455 332.705C95.477 332.502 95.2782 332.216 95.178 331.888ZM112.926 332.187C107.126 335.387 99.383 329.676 103.037 323.008C103.838 321.821 104.911 320.856 106.161 320.199C107.41 319.542 108.798 319.213 110.2 319.241C109.716 315.983 109.425 312.698 109.33 309.404C109.345 309.08 109.471 308.772 109.685 308.534C109.9 308.296 110.188 308.145 110.501 308.105C110.813 308.066 111.129 308.142 111.392 308.319C111.655 308.496 111.849 308.764 111.94 309.075C112.433 311.228 113.825 325.55 113.97 327.433C114.028 328.898 114.666 331.081 112.926 332.038V332.187Z" fill="white"/>
</svg>
