<svg width="310" height="290" viewBox="0 0 310 290" fill="none" xmlns="http://www.w3.org/2000/svg">
<path d="M263.908 208.141C262.186 239.563 235.273 268.037 202.283 274.162C169.294 280.287 133.188 263.996 117.114 236.359C115.34 233.309 113.76 230.11 112.18 226.912C108.102 218.654 104.026 210.399 96.6129 204.719C88.1488 198.234 77.2632 196.499 66.2681 194.747C59.286 193.634 52.2598 192.515 45.7814 190.167C30.1639 184.508 18.0378 171.101 14.6575 155.756C9.17974 130.889 26.5308 105.5 49.669 92.23C72.8072 78.9596 100.611 75.2637 127.58 72.4159C137.897 71.3265 146.277 64.0535 152.263 56.1175C154.58 53.0452 156.665 49.8168 158.748 46.5909C162.046 41.484 165.34 36.383 169.546 31.9165C187.356 13.0035 220.521 9.81203 243.206 23.4116C265.89 37.0111 276.748 64.9756 270.716 89.5406C269.677 93.7715 268.202 97.8913 266.727 102.011L266.727 102.012C265.315 105.956 263.903 109.9 262.873 113.942C260.672 122.582 260.251 131.524 260.001 140.403C259.702 150.989 259.632 161.603 260.691 172.146C261.06 175.814 261.565 179.477 262.071 183.14C263.219 191.462 264.366 199.78 263.908 208.141Z" fill="#D0E1A3"/>
<path d="M127.543 64.911C139.878 59.1704 149.695 49.2007 155.878 37.6829C156.689 36.1727 157.457 34.5681 157.428 32.8784C157.4 31.1887 156.349 29.399 154.602 28.9699C152.098 28.3549 149.945 30.6008 148.383 32.5324C137.657 45.8018 122.045 56.2189 104.428 58.4908C97.662 59.3633 90.7926 59.0356 83.9717 58.7062L73.3177 58.1916C64.7367 57.7771 56.0367 57.371 47.6373 59.0648C39.2379 60.7587 31.0306 64.8325 26.4174 71.6137C24.949 73.7722 23.8491 76.3158 24.2554 78.846C24.6718 81.4387 26.6419 83.6393 29.015 85.0342C31.3881 86.4291 34.1451 87.127 36.8774 87.7109C38.8778 88.1384 40.9211 88.517 42.968 88.3822C46.3145 88.1618 49.3515 86.6051 52.3064 85.0904C52.5033 84.9895 52.6998 84.8887 52.8959 84.7886C58.0606 82.1529 63.4121 79.812 68.9938 78.0728C77.1334 75.5365 85.6921 74.2953 94.2297 73.0572C105.731 71.3892 117.195 69.7268 127.543 64.911Z" fill="#D0E1A3"/>
<path d="M63.396 217.844L63.4033 217.844C63.906 217.863 64.4084 217.882 64.9096 217.906C72.8359 218.292 80.6799 220.11 87.882 223.23C90.628 224.42 93.4091 225.909 94.9514 228.345C96.8597 231.359 99.1504 234.161 101.76 236.673C102.773 237.647 103.869 238.6 105.221 239.098C106.572 239.596 108.241 239.55 109.338 238.659C110.67 237.576 110.757 235.654 110.346 234.049C109.673 231.417 107.995 229.124 106.334 226.91C100.884 219.642 95.1468 212.375 87.5627 207.039C79.9785 201.702 70.1908 198.471 60.9076 200.314C57.7023 200.951 54.5254 202.248 52.4003 204.581C50.2752 206.915 49.4354 210.426 50.9659 213.137C52.1801 215.287 54.6417 216.61 57.1619 217.206C59.1931 217.687 61.2966 217.765 63.3956 217.844H63.396Z" fill="#D0E1A3"/>
<path d="M277.795 108.53C275.677 107.783 273.277 108.685 271.483 109.979C267.941 112.533 265.845 116.529 264.892 120.617C263.938 124.705 264.015 128.934 264.097 133.117L264.797 169.062C264.849 171.688 264.973 174.519 266.699 176.59C267.24 177.238 267.979 177.807 268.853 177.891C269.913 177.992 270.893 177.366 271.658 176.673C275.842 172.883 276.391 166.914 276.892 161.473L276.91 161.275C277.646 153.289 278.92 145.345 280.722 137.508C281.229 135.305 281.786 133.087 282.847 131.062C286.171 124.716 285.376 116.66 280.866 110.99C280.05 109.964 279.074 108.981 277.795 108.53Z" fill="#D0E1A3"/>
<path d="M201.895 157.186C204.131 157.762 206.134 159.503 206.353 161.663C206.777 160.804 207.709 160.183 208.715 160.089L207.254 161.541L209.103 161.576L206.559 162.905C208.136 165.634 207.881 168.999 206.87 171.954C206.251 173.762 205.356 175.573 205.531 177.465C205.702 179.326 207.469 181.226 209.399 180.846L209.496 180.825C211.816 180.276 214.357 180.594 216.442 181.693C219.438 183.271 221.256 186.204 223.315 188.78C225.133 191.054 227.284 193.169 229.973 194.487C232.662 195.805 235.96 196.24 238.761 195.146C240.151 194.603 241.395 193.704 242.87 193.418C244.345 193.132 245.857 193.899 246.398 195.207C246.638 195.785 246.123 197.929 244.81 200.432C245.024 200.375 245.247 200.338 245.481 200.323C252.38 199.904 259.343 198.501 265.28 195.187C267.168 194.134 268.931 192.9 270.681 191.655L271.701 190.928L272.318 190.483C276.159 187.7 279.951 184.597 281.53 180.364L281.612 180.136L281.787 179.636C282.125 178.688 282.553 177.709 283.531 177.415C284.884 177.008 286.116 178.233 286.938 179.317L292.864 187.133C293.016 187.334 293.172 187.541 293.23 187.781C293.487 188.844 291.792 189.38 290.7 189.003C288.714 188.317 287.12 186.274 285.037 186.625C283.572 186.871 282.697 188.198 281.974 189.447L281.79 189.766C277.405 197.447 270.026 203.591 261.363 206.776C259.13 207.597 256.822 208.226 254.519 208.853L249.864 210.122L250.685 210.258C257.629 211.398 265.037 212.093 271.344 209.214C275.542 207.298 278.777 203.998 281.828 200.663L282.935 199.446L283.391 198.938C285.264 196.836 287.043 194.587 287.59 191.924C287.8 190.901 289.179 190.413 290.253 190.69C291.326 190.967 292.143 191.761 292.903 192.522L298.664 198.291C299.118 198.745 299.595 199.246 299.662 199.865C299.728 200.484 299.135 201.184 298.497 201.011L292.25 199.313C291.664 199.154 291.015 198.999 290.463 199.243C290.041 199.43 289.768 199.813 289.526 200.191L282.81 210.801C280.919 213.788 277.414 215.52 273.97 216.816C265.712 219.923 256.751 221.382 247.857 221.069C246.891 221.036 245.924 220.981 244.969 220.84C241.381 220.311 238.14 218.604 235.003 216.878C235.553 218.76 235.063 220.348 231.796 220.468C228.902 220.575 221.813 209.429 219.609 208.85C207.576 205.694 205.601 199.463 201.735 195.207C201.735 195.207 193.923 196.152 188.765 195.146C176.675 192.788 168.55 185.534 165.621 185.072C162.692 184.611 160.76 186.367 159.856 185.302L159.856 184.53C159.996 184.317 161.396 183.094 165.389 183.889C170.964 184.998 179.878 189.188 186.684 189.97C193.83 190.791 199.883 189.704 199.85 189.522C199.782 189.149 201.578 187.568 200.143 186.769C198.708 185.971 177.874 178.149 173.346 171.63L173.292 171.549C172.513 170.34 171.922 167.336 173.489 168.711L173.927 167.983C175.614 169.471 181.152 172.873 186.906 176.226C192.988 179.772 201.578 182.042 201.735 181.943C205.236 179.728 202.131 178.125 201.551 177.654C200.195 176.552 198.395 175.951 197.226 174.675C194.423 171.614 196.425 166.138 193.221 163.442C192.736 163.035 192.148 162.714 191.797 162.2C191.195 161.319 191.491 160.094 192.22 159.302C192.949 158.511 194.015 158.068 195.069 157.724C197.259 157.009 199.659 156.609 201.895 157.186Z" fill="white"/>
<ellipse cx="203.773" cy="172.84" rx="0.826668" ry="0.773331" fill="#FFB61D"/>
<ellipse cx="198.733" cy="172.84" rx="0.613068" ry="0.773331" fill="#FFB61D"/>
<path d="M168.776 176.589C161.09 174.73 153.012 174.301 145.151 175.334C145.746 172.585 146.49 169.865 147.381 167.188C144.823 167.96 141.803 165.767 141.968 163.257C142.134 160.748 145.419 158.918 147.856 159.979C148.693 158.171 148.746 156.059 148.001 154.217C147.643 153.333 149.069 152.823 150.079 152.823L155.66 152.822C156.44 152.822 157.527 152.483 157.334 151.776C156.874 150.1 158.106 148.184 159.905 147.779C161.671 147.382 163.659 148.513 164.115 150.152L164.138 150.243C164.562 152.004 166.946 152.563 168.875 152.528L169.835 152.507C171.503 152.474 173.241 152.525 174.358 153.616C175.693 154.922 175.395 157.001 174.955 158.773L174.925 158.891C174.302 161.351 173.637 163.802 172.931 166.242C174.302 176.563 170.907 177.104 168.776 176.589Z" fill="white"/>
<path d="M104.671 167.969C103.856 163.008 103.857 157.931 104.674 152.971L104.715 152.731C104.918 151.605 105.274 150.416 106.28 149.796C107.032 149.332 107.983 149.297 108.89 149.297L115.832 149.315C116.148 149.316 116.494 149.327 116.732 149.521C116.969 149.716 116.963 150.164 116.658 150.243C115.931 150.431 115.513 151.216 115.601 151.917C115.69 152.618 116.177 153.225 116.749 153.685C118.114 154.782 120.235 155.172 121.745 154.257C123.256 153.342 123.611 150.985 122.179 149.965C125.422 149.903 128.666 149.913 131.908 149.993L133.124 150.027C133.517 150.039 133.952 150.068 134.226 150.332C134.432 150.529 134.5 150.816 134.547 151.089C134.906 153.189 134.513 155.395 133.446 157.272C133.276 157.571 132.883 157.901 132.615 157.673C131.475 156.706 129.559 156.838 128.394 157.777C127.228 158.717 126.778 160.277 126.984 161.703C127.182 163.076 128.251 164.542 129.731 164.473C130.895 164.419 132.191 163.466 133.071 164.181L131.588 170.38C131.325 171.481 130.852 172.787 129.672 173.024C122.863 174.386 115.723 174.283 108.962 172.725L108.634 172.647C107.813 172.446 106.996 172.186 106.356 171.674C105.241 170.781 104.894 169.325 104.671 167.969Z" fill="white"/>
<path d="M158.094 119.329L174.549 119.638L174.818 119.644C175.312 119.659 175.81 119.7 176.255 119.894C177.261 120.333 177.722 121.416 178.028 122.414C179.66 127.742 179.459 133.548 177.46 138.766L177.376 138.98C177.116 139.622 176.776 140.262 176.161 140.623C175.656 140.921 175.039 140.983 174.44 141.013L174.311 141.019C171.865 141.127 169.409 141.069 166.971 140.844C168.241 140.113 168.562 138.333 167.755 137.159C166.949 135.986 165.246 135.496 163.812 135.877C162.938 136.11 162.124 136.668 161.807 137.465C161.491 138.262 161.797 139.286 162.605 139.675C163.163 139.944 163.067 140.792 162.578 141.161C162.089 141.53 161.409 141.556 160.78 141.566L152.524 141.691C151.904 141.7 151.251 141.703 150.706 141.425C149.934 141.03 149.579 140.181 149.361 139.383C148.836 137.458 148.765 135.426 149.155 133.473C149.624 135.016 151.655 135.952 153.249 135.361C154.842 134.77 155.635 132.785 154.846 131.361C154.057 129.937 151.867 129.398 150.432 130.275L150.372 129.777C150.166 128.033 150.006 126.266 150.364 124.549C150.756 122.667 151.875 120.819 153.709 119.964C155.046 119.341 156.591 119.307 158.094 119.329Z" fill="white"/>
<path d="M108.187 136.646C105.869 136.655 103.552 136.565 101.243 136.379L101.019 136.36C100.192 136.282 99.3254 136.128 98.7837 135.553C98.0526 134.776 98.2311 133.606 98.4507 132.582L98.4728 132.48C99.454 127.987 99.8394 123.381 99.618 118.799L99.5768 118.01C99.5153 116.589 99.6123 114.979 100.874 114.248C101.257 114.026 101.703 113.923 102.147 113.839L102.295 113.812C110.37 112.34 118.777 112.49 126.787 114.246C127.842 114.478 128.135 115.814 127.785 116.773C127.436 117.732 126.685 118.539 126.404 119.517C126.123 120.496 126.638 121.821 127.72 121.853C129.974 121.919 131.884 124.06 131.581 126.15C131.278 128.24 128.863 129.825 126.653 129.41C126.134 129.313 125.951 130.03 126.008 130.522L126.638 135.978C126.741 136.868 125.391 137.149 124.436 137.08L118.867 136.674C117.992 136.611 116.819 136.752 116.684 137.563C116.349 139.583 114.135 141.16 111.964 140.926C109.794 140.691 108.022 138.684 108.187 136.646Z" fill="white"/>
<path fill-rule="evenodd" clip-rule="evenodd" d="M93.1967 170.22C93.8146 170.36 94.6991 170.61 94.65 171.157C93.6612 182.173 89.4047 180.146 85.6092 183.305C84.6063 184.139 84.007 186.113 83.5762 186.159C85.1735 186.849 87.4916 189.617 91.4811 189.744C102.597 190.097 106.642 182.509 106.642 182.509C106.904 180.076 105.585 175.695 107.231 176.922C108.367 177.769 108.143 173.643 109.695 174.054C110.162 174.177 109.347 176.92 109.695 177.084C109.888 177.175 110.172 176.427 110.669 175.832C111.083 175.336 111.721 174.969 111.854 175.077C111.943 175.151 111.857 175.86 111.484 176.46C110.96 177.303 110.084 178.114 110.207 178.249C110.342 178.398 112.652 176.387 112.793 176.562C113.728 177.729 107.806 191.158 97.8138 193.693L97.0226 193.892C91.1976 195.34 88.7514 195.537 83.3545 193.693C80.7955 192.819 79.2039 200.986 77.7815 203.704C76.8834 205.42 72.521 209.627 70.529 208.355C67.9008 206.676 65.7578 203.552 63.5213 201.972L63.3776 201.873C61.8534 200.851 58.4059 199.3 53.0352 197.219L53.2772 197.115C54.3977 196.638 57.284 195.473 59.5001 193.693C62.649 191.164 64.3544 185.731 66.5495 182.802C68.7169 179.909 71.6253 180.335 69.87 179.823C69.87 179.823 65.4222 177.619 63.3776 177.417C56.549 176.743 47.6472 179.762 44.7995 181.707C40.8921 184.377 44.7743 188.305 39.3753 186.38C37.5759 185.738 42.3987 177.425 49.0513 174.054C58.2981 169.368 67.0414 168.079 75.8072 175.538C79.3746 178.573 79.7277 181.276 80.6844 183.336L80.4886 182.831C91.0633 182.179 75.2189 172.275 88.4466 169.796C89.8358 169.536 91.2938 169.807 92.6862 170.108L93.1967 170.22Z" fill="white"/>
<ellipse cx="86.3867" cy="177.094" rx="0.826668" ry="0.773331" fill="#FFB61D"/>
<ellipse cx="90.9331" cy="178.641" rx="0.826668" ry="0.773331" fill="#FFB61D"/>
<path fill-rule="evenodd" clip-rule="evenodd" d="M42.9429 207.085C51.9033 212.889 40.4387 204.872 50.229 214.426C52.2061 216.355 62.2162 205.336 63.2488 211.867C63.6255 214.249 62.8041 216.728 63.3049 219.09C63.7721 221.294 74.0189 219.971 74.8104 219.007C77.6796 215.513 68.7505 206.537 66.8782 205.102C56.4304 197.096 52.9827 197.651 43.2206 205.935L42.9429 207.085Z" fill="white"/>
<path fill-rule="evenodd" clip-rule="evenodd" d="M276.039 62.0025C277.796 62.1991 279.431 62.3818 279.431 60.4655C279.431 60.0096 273.516 56.0045 271.763 57.5469C269.509 59.5303 267.719 61.8048 265.985 64.0079C262.345 68.633 258.953 72.9434 252.036 73.5856L251.953 73.5942C249.272 73.8971 254.267 76.1233 259.876 73.5856C263.733 71.8408 268.865 66.3208 271.303 63.699C271.94 63.0129 272.394 62.5253 272.591 62.3557L272.642 62.3149C273.473 61.7156 274.787 61.8626 276.039 62.0025ZM284.383 67.1888L290.236 71.5346C291.376 72.3812 290.041 74.2057 288.588 74.2931C287.745 74.3439 286.937 74.1012 286.124 73.8573C285.536 73.6809 284.946 73.5038 284.339 73.4366C280.902 73.0565 278.282 76.0845 276.15 78.6348C274.202 80.9654 272.068 83.1605 269.773 85.1962L269.463 85.4691L269.139 85.7475C267.293 87.3176 265.223 88.7398 262.787 89.1496C259.201 89.7529 255.639 88.0352 252.71 86.008C251.995 85.5133 251.293 84.9943 250.59 84.475C248.415 82.8667 246.236 81.2555 243.656 80.3526C241.42 81.4939 239.328 82.873 237.417 84.4462L237.502 84.3835C240.71 87.3913 242.953 91.2885 243.872 95.4496L243.258 95.3487L242.853 95.2842C239.062 94.6895 235.003 94.3377 231.799 96.2353C230.67 96.9041 229.663 97.838 228.668 98.7614C227.975 99.4043 227.287 100.042 226.568 100.582C226.75 100.683 226.937 100.789 227.129 100.899C230.674 102.255 234.431 103.124 238.243 103.468C238.825 103.521 239.414 103.563 240.004 103.605L240.004 103.605L240.005 103.605L240.005 103.605C242.74 103.799 245.509 103.996 247.846 105.28L248.666 105.738C249.981 106.467 251.445 107.16 252.547 106.317C252.864 106.074 253.071 105.742 253.279 105.408L253.28 105.408C253.406 105.204 253.533 105.001 253.686 104.816C254.088 104.328 254.887 103.985 255.387 104.386L255.59 105.876C255.738 104.917 256.726 104.138 257.761 104.165C258.796 104.192 259.737 105.021 259.827 105.986C259.991 107.737 257.868 108.785 256.067 109.343L246.73 112.157C243.394 113.163 239.696 112.642 236.48 111.338C233.485 110.125 230.844 108.277 228.319 106.335L227.76 105.903C225.853 104.419 223.276 102.806 221.113 103.941C224.872 104.155 227.613 107.185 229.855 110.051L230.07 110.327C230.433 110.795 230.806 111.288 230.896 111.86C231.147 113.462 229.203 114.524 227.56 115.034C228.944 115.727 228.258 117.741 227.186 118.813C225.626 120.374 223.583 121.497 221.379 122.053L221.177 122.705C221.165 122.748 221.159 122.771 221.16 122.772C222.2 122.704 222.841 124.011 222.417 124.901C221.994 125.792 220.948 126.266 219.946 126.532C216.641 127.406 212.909 126.716 210.209 124.733L209.683 124.989C207.401 126.094 205.041 127.121 202.505 127.469C199.774 127.844 196.767 127.318 194.792 125.513L194.922 125.779C195.201 126.358 195.452 126.957 195.461 127.589C195.472 128.317 195.069 129.103 194.332 129.337C193.115 129.723 192.051 128.506 191.42 127.459C191.074 128.265 191.431 129.172 191.778 130.054C192.173 131.059 192.556 132.033 191.868 132.786C191.152 133.57 189.793 133.369 188.807 132.907C185.114 131.174 183.379 126.812 184.179 123.02C184.979 119.229 187.894 116.053 191.364 113.957C189.008 112.341 187.284 109.935 186.582 107.283C186.769 107.509 187.605 106.782 188.791 105.75C190.962 103.863 194.308 100.953 197.012 100.981C197.53 100.986 198.366 101.361 199.185 101.728C199.779 101.994 200.363 102.256 200.811 102.37C200.848 102.325 200.893 102.285 200.945 102.25L200.434 101.906C199.404 101.222 198.33 100.579 197.111 100.295C195.69 99.9649 194.007 100.237 193.101 101.314C190.887 103.947 188.081 106.144 184.92 107.718L186.794 110.955C186.019 111.301 185.054 111.238 184.335 110.801L184.247 110.745L184.302 110.81C185.382 112.127 184.433 114.423 182.666 114.683C180.873 115.387 179.065 113.285 179.241 111.473C179.365 110.203 180.038 109.078 180.711 107.951C180.999 107.47 181.286 106.988 181.532 106.495C182.361 104.828 182.726 102.977 183.088 101.137C183.584 98.6159 184.076 96.1167 185.754 94.1458C186.93 92.7655 188.576 91.8057 190.264 91.0185C196.964 87.8945 204.893 87.1474 212.125 88.9589C213.357 84.8307 215.798 81.0246 219.113 78.0659L219.311 77.8925C220.579 76.7995 222.156 75.8231 223.839 76.0023L223.972 76.0189C225.642 76.2572 227.094 75.0515 228.308 73.9355L228.682 73.5918L228.975 73.3275C231.384 71.1751 234.181 69.1886 237.472 68.9743C240.4 68.7836 243.203 70.0413 245.73 71.4375C248.59 73.0172 251.31 74.8178 253.853 76.8149L254.3 77.1693C254.42 77.2649 254.54 77.3613 254.66 77.4582C257.059 79.3857 259.684 81.4949 262.807 81.3201C266.008 81.1409 268.347 78.6548 270.502 76.3638L270.503 76.3627L270.507 76.3591L270.507 76.3589C270.68 76.1752 270.851 75.9928 271.022 75.813C273.681 73.0133 276.708 70.5486 279.772 68.1343L281.086 67.1019C281.484 66.79 281.912 66.4652 282.427 66.4027C283.151 66.3148 283.811 66.7641 284.383 67.1888ZM226.519 114.645C225.868 114.524 224.981 114.576 223.856 114.804C224.596 114.806 225.22 114.794 225.726 114.766C225.971 114.738 226.215 114.702 226.455 114.657L226.519 114.645ZM202.42 101.24L202.42 101.24L202.42 101.24C202.657 101.012 202.907 100.772 203.184 100.567L203.185 100.566L203.186 100.566C203.703 100.311 204.284 100.182 204.87 100.234C206.853 100.41 208.354 102.383 208.095 104.23C207.048 106.656 204.458 108.04 201.896 109.41C200.318 110.253 198.751 111.091 197.562 112.163C197.861 111.702 198.187 111.335 198.518 111.109C199.552 110.405 200.633 109.795 201.652 109.22L201.652 109.22L201.652 109.22C202.509 108.737 203.321 108.278 204.025 107.809C205.132 107.072 205.876 106.371 206.452 105.828C206.893 105.412 207.236 105.089 207.568 104.913C207.595 104.898 208.845 102.529 205.824 100.98C203.544 99.8111 202.528 101.29 201.982 102.085C201.805 102.343 201.677 102.529 201.572 102.529C201.544 102.529 201.506 102.525 201.458 102.517C201.534 102.265 201.648 102.022 201.795 101.794L201.795 101.794L201.796 101.793C202 101.642 202.205 101.446 202.42 101.24ZM201.796 101.793L201.795 101.793L201.795 101.794L201.72 101.847C201.57 101.949 201.419 102.024 201.263 102.059C200.949 102.128 200.202 101.591 199.569 101.137C199.19 100.865 198.852 100.623 198.673 100.557C197.489 100.123 197.35 100.117 196.529 100.08C196.39 100.074 196.232 100.067 196.046 100.057L195.706 100.037C195.631 100.033 195.549 100.03 195.462 100.026H195.461H195.461H195.461C194.781 99.9995 193.802 99.961 193.997 99.4662C197.495 90.6104 212.439 88.6833 209.968 98.6939C209.764 99.5216 209.227 100.246 208.691 100.971C208.423 101.333 208.154 101.695 207.928 102.07C206.962 100.786 205.91 100.11 204.771 100.04C204.137 100.001 203.627 100.239 203.186 100.566L203.185 100.566L203.184 100.567L203.065 100.629C202.546 100.91 202.101 101.318 201.796 101.793ZM230.172 92.6844L230.175 92.6793C229.352 94.1418 228.469 95.9021 227.525 97.9603C228.235 96.1316 229.124 94.365 230.172 92.6844ZM236.835 94.0331L236.72 94.0372C235.808 94.073 234.99 94.2006 234.266 94.4201C233.463 94.6636 232.608 95.0708 231.702 95.6416C233.288 94.8199 235.04 94.2702 236.835 94.0331Z" fill="white"/>
<path fill-rule="evenodd" clip-rule="evenodd" d="M190.206 131.123C189.489 131.907 188.451 131.654 187.5 130.787C185.509 128.971 184.709 125.468 185.509 121.676C186.309 117.884 189.427 116.322 192.897 114.225C191.34 113.625 188.519 109.821 188.236 106.123C189.195 107.282 189.246 109.362 190.206 110.52C191.117 111.62 192.937 112.959 193.848 114.058C193.964 114.198 194.064 114.434 193.899 114.522C190.572 116.29 188.417 116.875 186.454 121.676C184.492 126.477 188.476 130.917 189.005 130.787C189.657 130.626 189.426 129.816 189.052 129.291C187.995 127.811 189 125.837 189.862 124.25C190.322 124.733 189.215 126.118 189.448 127.559C189.676 128.965 190.844 130.425 190.206 131.123Z" fill="#E7EAEE"/>
<ellipse cx="203.773" cy="115.226" rx="0.826668" ry="0.773335" fill="#FFB61D"/>
<ellipse cx="200.88" cy="112.133" rx="0.826668" ry="0.773335" fill="#FFB61D"/>
<path d="M77.2563 119.727C77.7343 120.561 76.983 121.754 75.9712 121.768C75.1046 117.211 74.1702 112.496 71.3504 108.692C65.9513 101.41 54.8254 99.0179 50.2029 91.282C47.0554 93.3776 42.2427 92.8434 39.7069 90.1169C38.1299 88.4213 35.3809 88.2132 33.0126 88.5915C30.6443 88.9698 28.3305 89.806 25.9291 89.735C24.887 89.7041 23.7517 89.442 23.1453 88.6487C22.5389 87.8554 22.8892 86.4593 23.9212 86.3211C28.4172 85.7191 32.9133 85.1171 37.4093 84.515C37.7623 84.4678 38.137 84.4115 38.4051 84.1914C38.7083 83.9424 38.8036 83.5442 38.8822 83.1739C39.5331 80.1095 40.0021 76.4564 37.59 74.2954C35.5909 72.5045 32.4357 72.5663 29.7198 73.0659C27.0038 73.5656 24.2048 74.3876 21.5282 73.7279C18.8516 73.0681 16.6132 70.0937 18.0561 67.884C19.0225 66.404 17.9328 64.4302 16.4421 63.3992C14.9513 62.3682 13.0961 61.8604 11.6512 60.7738C10.2063 59.6873 9.28926 57.5907 10.4402 56.2311C10.9464 55.6331 11.7389 55.3181 12.5165 55.0886C15.09 54.3292 17.9595 54.2713 20.4402 55.2649C22.9208 56.2585 24.9353 58.3882 25.339 60.8842C25.6679 62.9176 25.0429 65.2833 26.4799 66.8397C28.3586 68.8747 31.8309 67.7333 34.7051 67.7088C37.6447 67.6837 40.5515 69.1418 42.156 71.4461C43.7605 73.7504 44.0112 76.827 42.7986 79.3321C46.2131 76.0821 50.812 73.589 55.6798 73.7588C60.176 73.9155 64.3072 76.3349 67.3143 79.4657C70.3213 82.5966 72.3727 86.4097 74.3842 90.1746C75.1336 91.5773 77.0345 92.3375 78.6362 91.8751C80.2379 91.4127 81.3503 89.7826 81.1244 88.2289C82.5203 88.5135 82.6657 90.2787 82.7087 91.6146C82.7991 94.4214 83.8855 97.1923 85.7567 99.388C86.3826 98.3079 86.8602 97.1526 87.1739 95.9595C88.5397 97.4284 89.0493 99.5544 88.4848 101.428C87.9202 103.302 86.2989 104.866 84.3142 105.452C83.258 105.763 81.9667 105.913 81.4425 106.825C83.423 110.07 85.1264 113.462 86.5313 116.959C87.2846 118.834 87.8281 121.247 86.2425 122.594C84.4092 121.328 83.3675 119.319 82.3948 117.391C80.8776 114.384 79.3604 111.377 77.8431 108.37" fill="white"/>
<path fill-rule="evenodd" clip-rule="evenodd" d="M82.2608 89.6249C81.8624 93.2663 83.3194 97.0472 86.1097 99.6133C87.1047 99.0516 87.7409 97.9737 87.7189 96.8867C88.7646 98.4951 88.1787 100.676 86.8785 102.113C85.5783 103.55 83.7127 104.411 81.9025 105.233C80.8653 105.704 79.7884 106.185 78.6359 106.217C76.8776 106.266 75.3024 105.277 73.8647 104.329L69.6468 101.547C71.8259 105.351 76.7863 107.566 81.3185 106.759C84.4704 110.895 86.4003 115.838 86.8404 120.901L85.9932 119.436C85.9854 119.418 85.9752 119.401 85.9623 119.383L85.9932 119.436C86.1149 119.717 85.6388 120.028 85.3182 119.883C84.9772 119.728 84.8485 119.344 84.7478 119.002C83.5069 114.793 81.2831 110.84 78.2772 107.5L82.8288 116.521C83.8015 118.449 84.8432 120.457 86.6765 121.724C88.2621 120.377 87.7186 117.964 86.9653 116.089C85.5604 112.592 83.857 109.199 81.8765 105.955C82.3022 105.214 83.2337 104.976 84.1345 104.746C84.3429 104.693 84.5497 104.64 84.7482 104.581C86.7329 103.996 88.3542 102.432 88.9188 100.558C89.4833 98.6842 88.9737 96.5582 87.6079 95.0894C87.2942 96.2824 86.8166 97.4377 86.1907 98.5179C84.3195 96.3221 83.2331 93.5513 83.1427 90.7445C83.0997 89.4086 82.9543 87.6433 81.5584 87.3587C81.7843 88.9125 80.6719 90.5426 79.0702 91.005C77.4685 91.4673 75.5676 90.7071 74.8182 89.3045C72.8067 85.5395 70.7553 81.7264 67.7483 78.5956C64.7412 75.4647 60.61 73.0454 56.1138 72.8886C51.246 72.7189 46.6471 75.212 43.2326 78.462C44.4452 75.9568 44.1946 72.8802 42.59 70.5759C40.9855 68.2716 38.0787 66.8136 35.1391 66.8386C34.3934 66.845 33.6075 66.9265 32.8196 67.0083C30.5705 67.2416 28.3052 67.4766 26.9139 65.9696C25.9313 64.9052 25.9128 63.4624 25.8942 62.0062V62.0062V62.0062V62.0062V62.0062V62.0062V62.0062C25.8856 61.333 25.877 60.6569 25.773 60.014C25.3693 57.5181 23.3548 55.3884 20.8742 54.3947C18.3935 53.4011 15.524 53.459 12.9505 54.2185C12.1729 54.4479 11.3804 54.763 10.8742 55.3609C9.72327 56.7205 10.6403 58.8171 12.0852 59.9037C12.8457 60.4755 13.7198 60.8871 14.5946 61.299L14.5946 61.299L14.5946 61.299L14.5946 61.299C15.382 61.6697 16.1699 62.0407 16.8761 62.5291C18.3668 63.5601 19.4566 65.5339 18.4901 67.0139C17.0472 69.2236 19.2856 72.198 21.9622 72.8577C24.1748 73.4031 26.4711 72.9359 28.7349 72.4753C29.2096 72.3787 29.683 72.2824 30.1538 72.1958C32.8697 71.6962 36.0249 71.6343 38.024 73.4253C40.4361 75.5862 39.9671 79.2394 39.3162 82.3038C39.2376 82.674 39.1423 83.0722 38.8391 83.3212C38.571 83.5414 38.1963 83.5976 37.8433 83.6449L24.3552 85.451C23.3232 85.5892 22.9729 86.9853 23.5793 87.7785C24.1858 88.5718 25.321 88.834 26.3631 88.8648C27.9563 88.912 29.511 88.5597 31.0686 88.2068C31.8587 88.0278 32.6496 87.8486 33.4466 87.7213C35.8149 87.343 38.5639 87.5511 40.1409 89.2468C42.6767 91.9733 47.4894 92.5075 50.6369 90.4119C53.0693 94.4826 57.3025 97.0735 61.5544 99.676C65.3828 102.019 69.2264 104.372 71.7844 107.822C74.6042 111.625 75.5386 116.341 76.4052 120.898C77.417 120.884 78.1683 119.691 77.6904 118.857L76.7396 120.03C76.3885 112.847 72.4673 105.887 66.3326 101.556C64.8133 100.484 63.1473 99.5433 61.4849 98.6051C57.832 96.5436 54.1964 94.4919 52.1737 91.0676C51.9915 90.7592 51.8219 90.4327 51.7924 90.0814C51.7551 89.637 51.9445 89.2085 52.1272 88.795L52.1533 88.736C52.8824 87.0813 53.3917 85.2656 53.0336 83.5075C52.6754 81.7494 51.2606 80.087 49.3685 79.8224C52.5712 81.7389 53.2278 86.495 50.6505 89.1097C48.0733 91.7244 42.9527 91.4971 40.6516 88.6659C38.8074 86.3969 35.1198 86.6747 32.1515 87.3182C29.1832 87.9617 25.6877 88.6352 23.3946 86.7581C28.3004 85.4963 33.3485 84.7194 38.4278 84.4444C39.6378 84.3789 40.1124 82.9669 40.2754 81.8433C40.5259 80.1162 40.7764 78.3612 40.502 76.6373C40.2275 74.9133 39.3516 73.1935 37.7878 72.246C35.9099 71.1081 33.4856 71.2845 31.2603 71.5023L25.3467 72.0811C24.0725 72.2058 22.763 72.3281 21.5276 72.0107C20.2921 71.6933 19.1297 70.8316 18.8929 69.6538C18.7433 68.9099 18.9709 68.1773 19.2004 67.4388C19.3657 66.9071 19.5318 66.3723 19.5589 65.828C19.6361 64.278 18.5657 62.8578 17.2651 61.8948C16.4683 61.3048 15.5803 60.8406 14.6916 60.3759L14.6915 60.3759C14.1297 60.0822 13.5676 59.7882 13.0279 59.4623C12.012 58.8487 10.9696 57.8573 11.2521 56.7574C11.4327 56.054 12.1132 55.5664 12.7973 55.2291C15.1069 54.0901 17.9939 54.0389 20.348 55.0951C22.7022 56.1514 24.4666 58.2895 24.963 60.6874C25.0854 61.279 25.1411 61.8968 25.1966 62.5134V62.5134C25.3251 63.9396 25.4529 65.3592 26.4055 66.4308C27.5434 67.7108 29.51 68.0333 31.2876 67.954C31.897 67.9268 32.5064 67.863 33.1153 67.7992C34.2824 67.6769 35.4476 67.5548 36.6079 67.6915C40.5094 68.1512 43.5834 71.9487 42.9986 75.5865C42.9662 75.7877 42.9246 75.9906 42.8829 76.1942C42.734 76.9199 42.5837 77.6525 42.8486 78.3342C43.1879 79.2069 44.672 79.6717 45.1422 78.8538C47.2491 75.1888 52.0814 73.3422 56.4996 73.8263C60.9178 74.3103 64.8717 76.799 67.7724 79.954C70.6731 83.109 72.6463 86.9056 74.4459 90.7113C75.0798 92.0517 76.967 92.5372 78.4747 92.1384C79.9825 91.7396 81.1789 90.6852 82.2608 89.6249ZM74.6355 96.463L74.6356 96.4631C75.0044 97.1384 75.6788 98.3734 76.568 98.749C76.5285 99.0989 75.9402 98.9116 75.6956 98.6442C75.0002 97.8842 74.2624 97.0098 74.3435 96.0123C74.3863 96.0066 74.4857 96.1886 74.6355 96.4629L74.6355 96.463ZM76.4423 102.011C76.9012 102.64 74.1524 102.954 73.2387 102.405C73.3996 102.376 73.6117 102.391 73.8464 102.408C74.1249 102.428 74.4354 102.451 74.7304 102.405C75.1624 102.337 75.5796 102.213 75.8944 102.119C76.1999 102.028 76.4091 101.966 76.4423 102.011ZM75.7826 99.6729C74.6884 99.8484 73.3441 98.4851 73.3441 97.2027C73.6595 98.1508 74.7799 98.9029 75.399 99.3184C75.714 99.5299 75.8993 99.6542 75.7826 99.6729ZM79.703 105.035C78.2456 105.035 77.585 102.736 78.2456 102.588C78.4037 102.521 78.4112 102.727 78.4221 103.031C78.4337 103.351 78.4492 103.779 78.6478 104.112C78.8685 104.483 79.3359 104.731 79.6087 104.875C79.815 104.984 79.91 105.035 79.703 105.035ZM81.3266 101.904C81.6466 102.069 81.9385 102.325 82.0213 102.658C82.1041 102.99 81.9052 103.394 81.5476 103.463C81.4355 103.309 81.4962 103.211 81.5603 103.108C81.6544 102.956 81.7556 102.793 81.3266 102.424C81.146 102.268 80.9358 102.2 80.7882 102.153C80.6747 102.116 80.5984 102.092 80.6013 102.048C80.6198 101.772 81.0671 101.771 81.3266 101.904ZM78.5988 98.9085C78.5266 98.9554 78.477 98.9877 78.5196 99.0247C78.6513 99.1392 78.8062 99.194 78.961 99.1108C79.0791 99.0473 79.139 98.9187 79.1668 98.7939C79.3224 98.0974 78.5361 97.3781 77.7952 97.5391C77.8609 97.7011 77.9868 97.753 78.1396 97.816C78.3159 97.8887 78.5281 97.9761 78.7251 98.2646C78.9907 98.6536 78.7471 98.8121 78.5988 98.9085ZM78.3494 105.475C77.4913 105.241 76.6427 103.345 77.0995 103.201C77.3845 103.112 77.3829 103.126 77.3663 103.276C77.3511 103.414 77.3234 103.665 77.4913 104.054C77.6998 104.537 77.9918 104.929 78.1778 105.179C78.3052 105.35 78.3828 105.454 78.3494 105.475ZM274.899 62.4327C273.056 62.6444 271.604 64.0344 270.689 65.5448C270.246 66.2752 269.892 67.0481 269.537 67.8209C269.159 68.6463 268.781 69.4715 268.295 70.2445C265.977 73.9327 261.572 75.9487 257.351 77.5961C256.623 77.8802 255.348 77.7466 255.575 77.0401C262.486 75.8134 268.435 70.6949 270.319 64.3552C270.541 63.6083 269.502 62.978 268.701 63.1755C267.976 63.3542 267.46 63.9198 266.994 64.4811L266.849 64.6577C262.999 69.3414 257.473 73.3012 251.164 73.5568C250.717 73.5749 250.078 73.32 250.275 72.9444C254.948 72.7978 259.353 70.6401 262.823 67.7083C266.293 64.7765 268.939 61.1017 271.415 57.391C271.798 56.817 272.717 56.9396 273.402 57.158C275.502 57.8281 277.517 58.732 279.391 59.8444C280.397 60.4417 279.6 62.0352 278.456 62.3476C277.799 62.5272 277.113 62.4836 276.424 62.4398C275.913 62.4074 275.402 62.3749 274.899 62.4327ZM273.104 58.7778L272.943 58.7321C272.451 58.6003 271.902 58.5271 271.506 58.8125C271.353 58.9232 271.243 59.0759 271.142 59.2318L269.827 61.3063C270.518 61.4557 271.179 61.7203 271.772 62.0838C272.256 62.3808 272.923 62.3923 273.418 62.112C273.913 61.8317 274.212 61.2738 274.156 60.7349C274.135 60.5338 274.487 60.4792 274.634 60.627C274.744 60.7375 274.776 60.8891 274.809 61.0401C274.82 61.0912 274.831 61.1423 274.845 61.1917C274.901 61.3869 275.071 61.5972 275.283 61.557C275.497 61.3662 275.615 61.0837 275.594 60.8074C275.671 60.5224 276.146 60.7765 276.22 61.0623C276.293 61.3481 276.431 61.7545 276.735 61.6782C277.181 61.575 277.321 60.9939 277.104 60.6152C276.886 60.2364 276.449 60.0223 276.032 59.8416C275.081 59.4295 274.103 59.074 273.104 58.7778ZM269.107 62.1503C269.793 62.7966 270.792 63.1406 271.763 63.0647C271.168 62.3638 270.156 61.9976 269.211 62.1331L269.107 62.1503ZM219.946 126.531C216.642 127.405 212.91 126.716 210.209 124.732C207.764 125.931 205.236 127.094 202.505 127.469C199.774 127.844 196.767 127.317 194.792 125.512C195.119 126.174 195.451 126.86 195.461 127.588C195.472 128.316 195.069 129.103 194.332 129.336C193.115 129.722 192.051 128.505 191.42 127.459C191.074 128.265 191.431 129.171 191.778 130.053C192.173 131.059 192.556 132.032 191.868 132.785C191.152 133.57 189.793 133.369 188.807 132.906C185.114 131.173 183.379 126.812 184.179 123.02C184.979 119.228 187.894 116.053 191.364 113.956C189.008 112.34 187.284 109.935 186.582 107.282C187.062 107.862 187.418 108.535 187.774 109.208C188.13 109.881 188.486 110.554 188.966 111.133C189.421 111.683 190.001 112.139 190.58 112.595C191.16 113.051 191.739 113.507 192.195 114.057C192.311 114.197 192.411 114.433 192.246 114.521C188.919 116.289 186.073 119.105 185.129 122.574C184.185 126.043 185.499 130.137 188.757 132.014C189.331 132.345 190.016 132.61 190.668 132.449C191.32 132.288 191.809 131.522 191.434 130.997C190.378 129.517 190.249 127.5 191.111 125.912L193.841 128.776C194.469 128.625 194.624 127.835 194.457 127.249C194.404 127.064 194.331 126.88 194.259 126.697L194.259 126.697C194.103 126.303 193.948 125.911 193.989 125.498C194.051 124.895 194.893 124.355 195.338 124.796C197.113 126.556 199.966 127.055 202.519 126.668C205.073 126.28 207.412 125.134 209.7 124.003L212.4 122.67C212.205 123.398 211.574 124.01 210.803 124.218C213.409 125.969 216.894 126.52 219.971 125.666C220.501 125.518 221.045 125.315 221.389 124.91C221.732 124.505 221.788 123.846 221.373 123.504C221.322 123.463 221.265 123.426 221.209 123.39C221.098 123.318 220.988 123.246 220.924 123.137C220.828 122.973 220.977 122.696 221.16 122.771C222.2 122.704 222.841 124.01 222.417 124.901C221.994 125.792 220.948 126.266 219.946 126.531ZM201.499 113.603C200.905 113.425 200.239 113.808 199.981 114.339C199.723 114.87 199.796 115.494 199.992 116.048C200.054 115.423 200.139 114.952 200.391 114.541C200.501 114.364 200.838 114.197 201.135 114.05C201.518 113.86 201.834 113.704 201.499 113.603ZM200.996 112.033C201.862 111.831 202.84 112.143 203.394 112.798C203.948 113.452 204.048 114.414 203.639 115.157C203.541 115.046 203.518 114.845 203.489 114.593C203.403 113.848 203.265 112.658 200.996 112.033ZM200.244 117.787C199.97 118.107 200.925 118.953 202.417 118.37C202.694 118.262 202.468 118.25 202.112 118.23C201.788 118.212 201.356 118.189 201.098 118.081C200.88 117.99 200.768 117.844 200.684 117.735C200.56 117.573 200.498 117.492 200.244 117.787ZM203.269 118.858C204.225 118.412 203.625 119.719 201.624 119.559C201.444 119.544 201.208 119.479 201.21 119.309C201.21 119.249 201.38 119.235 201.643 119.214C202.051 119.181 202.687 119.129 203.269 118.858ZM197.368 116.377C197.728 116.706 198.252 116.714 198.601 116.651C198.814 116.613 198.919 116.434 198.723 116.377C198.678 116.363 198.602 116.352 198.511 116.339L198.511 116.339C198.303 116.308 198.016 116.266 197.824 116.157C197.7 116.087 197.629 115.849 197.569 115.645C197.507 115.435 197.455 115.261 197.368 115.343C197.195 115.504 197.008 116.048 197.368 116.377ZM197.687 117.49C197.861 117.738 197.197 117.652 197.055 117.49C196.912 117.327 196.771 116.714 197.01 116.714C197.08 116.714 197.103 116.811 197.132 116.927C197.158 117.033 197.188 117.156 197.262 117.234C197.405 117.386 197.501 117.409 197.571 117.425C197.619 117.437 197.655 117.445 197.687 117.49ZM227.537 116.258C227.895 116.927 227.269 117.677 226.665 118.167C224.212 120.16 221.279 121.634 218.149 122.448C221.523 122.47 224.881 121.119 227.186 118.814C228.259 117.741 228.944 115.727 227.56 115.034C229.203 114.525 231.147 113.462 230.896 111.86C230.807 111.288 230.433 110.796 230.07 110.328L229.855 110.051C227.613 107.185 224.872 104.155 221.113 103.942C223.277 102.807 225.853 104.419 227.76 105.903L228.319 106.336C230.844 108.277 233.485 110.125 236.48 111.339C239.696 112.642 243.394 113.163 246.73 112.158L256.067 109.343C257.869 108.785 259.991 107.737 259.827 105.986C259.737 105.021 258.796 104.192 257.761 104.165C256.727 104.138 255.738 104.918 255.591 105.876L255.388 104.386C254.887 103.986 254.089 104.329 253.686 104.816C253.534 105.001 253.406 105.205 253.28 105.408C253.072 105.742 252.864 106.074 252.547 106.317C251.445 107.16 249.981 106.467 248.666 105.739L247.846 105.28C245.51 103.996 242.74 103.799 240.006 103.605L240.005 103.605C239.415 103.563 238.826 103.521 238.244 103.469C234.431 103.124 230.674 102.255 227.129 100.899C230.38 103.393 234.627 103.811 238.912 104.233C241.071 104.446 243.239 104.66 245.295 105.141C246.925 105.522 248.726 106.299 249.126 107.826C249.707 110.043 246.892 111.76 244.462 111.967C240.489 112.306 236.617 110.725 233.243 108.708L232.863 108.478C231.642 107.728 230.458 106.921 229.275 106.114C227.105 104.635 224.937 103.157 222.541 102.033C225.015 102.15 226.822 100.474 228.668 98.7616C229.664 97.8383 230.671 96.9044 231.8 96.2356C235.117 94.2701 239.354 94.7178 243.258 95.349L243.872 95.4499C242.954 91.2887 240.71 87.3916 237.502 84.3837L243.015 94.5219C237.211 92.7131 230.25 94.9734 226.893 99.7574C229.484 91.5763 235.649 84.44 243.656 80.3529C246.236 81.2558 248.415 82.8669 250.591 84.4753L250.591 84.4758L250.591 84.4759C251.294 84.995 251.995 85.5137 252.71 86.0083C255.639 88.0354 259.201 89.7532 262.787 89.1498C265.366 88.7159 267.536 87.147 269.463 85.4693L269.773 85.1965C272.069 83.1608 274.202 80.9656 276.15 78.635C278.282 76.0848 280.903 73.0568 284.339 73.4369C284.946 73.504 285.536 73.6811 286.124 73.8576C286.937 74.1015 287.745 74.3441 288.588 74.2934C290.041 74.206 291.376 72.3814 290.236 71.5348L284.383 67.189C283.811 66.7643 283.151 66.315 282.427 66.4029C281.912 66.4654 281.484 66.7902 281.087 67.1021L279.772 68.1346C276.708 70.5489 273.681 73.0136 271.022 75.8132C270.85 75.9947 270.677 76.1787 270.502 76.3641C268.347 78.655 266.008 81.1412 262.807 81.3204C259.684 81.4952 257.059 79.386 254.661 77.4584L254.484 77.3165L254.301 77.1696L253.854 76.8151C251.31 74.8181 248.59 73.0174 245.731 71.4378C243.203 70.0415 240.401 68.7839 237.472 68.9745C234.047 69.1975 231.157 71.3404 228.682 73.5921L228.308 73.9358C227.094 75.0517 225.642 76.2575 223.972 76.0191L223.839 76.0026C222.157 75.8233 220.579 76.7998 219.311 77.8928L219.113 78.0662C215.799 81.0248 213.357 84.8309 212.125 88.9591C204.894 87.1477 196.964 87.8947 190.264 91.0187C188.576 91.8059 186.93 92.7657 185.755 94.1461C184.077 96.1169 183.585 98.6162 183.088 101.138C182.726 102.977 182.361 104.829 181.532 106.495C181.287 106.988 180.999 107.47 180.711 107.951C180.038 109.079 179.365 110.204 179.242 111.473C179.065 113.285 180.873 115.388 182.667 114.684C184.463 114.419 185.413 112.05 184.247 110.745C184.974 111.232 185.987 111.316 186.794 110.955L184.92 107.719C188.081 106.144 190.887 103.948 193.102 101.314C194.007 100.237 195.69 99.9651 197.112 100.296C198.33 100.579 199.404 101.222 200.434 101.906L200.945 102.25C200.349 102.655 200.692 103.733 201.429 103.768C200.954 101.958 202.888 100.058 204.87 100.234C206.853 100.411 208.354 102.383 208.095 104.23C207.048 106.657 204.458 108.041 201.896 109.41C199.117 110.896 196.37 112.364 195.666 115.125C194.956 117.907 197.249 121.022 200.281 121.394C203.312 121.766 206.386 119.309 206.468 116.45C206.468 116.45 206.916 116.493 207.075 116.048C207.325 115.347 207.562 114.571 207.797 113.801L207.797 113.801L207.797 113.801L207.797 113.8C208.238 112.353 208.672 110.93 209.174 110.081C210.579 107.697 213.195 105.81 216.103 105.745C217.027 105.724 217.945 105.596 218.862 105.467C220.033 105.304 221.203 105.141 222.381 105.201C224.483 105.31 226.786 106.461 227.089 108.409C224.759 107.986 222.328 108.057 220.03 108.616L228.164 109.521C229.95 109.72 230.284 112.307 229.011 113.496C227.811 114.617 225.982 114.801 224.271 114.872L223.961 114.884C224.26 115.455 225.004 115.514 225.748 115.573C226.491 115.632 227.234 115.691 227.537 116.258ZM270.802 83.0093C268.281 85.6282 265.333 88.4429 261.568 88.5742C258.276 88.6891 255.396 86.7042 252.732 84.8684L252.535 84.7329L251.899 84.298C248.923 82.2786 245.841 80.3962 242.667 78.6601C240.209 77.3157 237.382 76.0171 234.626 76.6839L238.99 77.9687C238.254 78.3378 237.992 79.3425 238.463 79.9874C238.564 79.0219 239.758 78.4079 240.782 78.5589C241.807 78.7099 242.64 79.4134 243.274 80.1807C237.773 82.1541 233.093 86.0609 230.372 90.95C229.867 91.859 229.427 92.7991 228.987 93.7389L228.987 93.7391L228.987 93.7393L228.987 93.7395L228.987 93.7397L228.987 93.7398L228.986 93.7401L228.986 93.7404C228.39 95.0145 227.794 96.288 227.035 97.4821C225.716 99.5574 223.763 101.445 221.25 101.995C220.898 102.072 220.537 102.123 220.177 102.173C219.454 102.274 218.734 102.375 218.091 102.688C218.058 102.705 218.024 102.721 217.99 102.738L217.868 102.799C217.113 103.176 216.183 103.641 215.718 103.028C214.956 102.024 213.742 101.331 212.439 101.158C214.593 94.387 220.135 88.6333 227.11 85.9266C227.505 85.7734 227.354 85.2208 227.138 84.8756L223.966 79.797C223.673 79.3279 224.016 78.69 224.532 78.4412C225.048 78.1923 225.664 78.2297 226.24 78.2968C229.91 78.7244 233.443 80.1331 236.314 82.3135C236.774 82.6623 237.526 83.0048 237.862 82.5492C234.587 79.4589 229.901 78.0261 225.29 77.4486C229.276 77.0842 233.398 78.2584 236.49 80.6392L236.64 80.7544C237.379 81.3155 238.273 81.9118 239.125 81.5678C235.672 78.4692 230.95 76.6404 226.166 76.5489C227.15 75.8641 228.069 75.1028 228.989 74.3416L228.989 74.3415L228.989 74.3414C229.923 73.5679 230.857 72.7944 231.859 72.1011C233.848 70.7255 236.225 69.6514 238.694 69.7863C240.487 69.8843 242.168 70.6079 243.754 71.3957C247.106 73.0608 250.263 75.0708 253.148 77.3777C253.353 77.541 253.558 77.7068 253.765 77.8736C256.508 80.0845 259.5 82.4966 263.045 82.185C265.206 81.995 267.121 80.7734 268.643 79.3244C269.484 78.5229 270.235 77.645 270.985 76.7669L270.985 76.7666C271.592 76.0574 272.198 75.3481 272.853 74.6786C273.797 73.7129 274.89 72.8049 276.233 72.4362C277.575 72.0675 279.211 72.3728 280.008 73.4481L270.802 83.0093ZM183.932 100.946C184.418 98.4572 184.899 95.9964 186.697 94.1848C187.577 93.2976 188.703 92.6586 189.85 92.0976C195.716 89.2275 202.557 88.135 209.108 89.0219C210.711 89.239 212.698 90.0805 212.672 91.5045C212.662 91.5915 212.653 91.6786 212.645 91.7658C212.661 91.6766 212.67 91.5895 212.672 91.5045C213.325 85.5504 217.032 79.9488 222.448 76.7589C222.929 79.8922 224.396 82.8873 226.62 85.2731C220.726 87.5952 215.833 92.06 213.205 97.5135L213.163 97.5996C212.416 99.1285 211.232 101.006 209.503 100.625L210.359 95.6772C210.438 95.2235 210.51 94.7322 210.28 94.3261C210.024 93.8726 209.475 93.6637 208.939 93.5128L208.752 93.4617C205.653 92.6411 202.176 91.8531 199.346 93.2911C197.849 94.0519 196.774 95.3269 195.77 96.6358L195.023 97.6163C193.252 99.9296 191.27 102.101 189.104 104.099C188.231 104.903 187.288 105.703 186.121 106.049C184.953 106.396 183.502 106.163 182.808 105.218C183.361 103.867 183.648 102.402 183.932 100.946ZM203.03 120.226C201.191 120.864 199.693 120.55 198.257 119.767C197.643 119.432 197.064 119.002 196.718 118.42C196.199 117.549 196.277 116.467 196.576 115.509C197.023 114.078 197.939 112.778 199.168 111.828C200.018 111.171 200.997 110.689 201.976 110.208C202.314 110.041 202.651 109.875 202.984 109.702C206.229 108.008 209.029 105.573 211.07 102.668C211.477 102.088 212.336 101.9 213.055 102.071C213.774 102.243 214.373 102.703 214.891 103.2C215.262 103.555 215.537 104.261 215.042 104.44C211.577 105.695 208.786 108.481 207.671 111.797L207.653 111.853L207.629 111.924L207.585 112.06L207.582 112.07C207.413 112.595 207.241 113.125 206.877 113.55C206.45 114.048 205.593 115.803 206.03 116.636C206.03 116.636 204.87 119.587 203.03 120.226ZM207.838 93.9572C208.4 94.075 209.011 94.2443 209.319 94.699C209.571 95.0712 209.555 95.5444 209.516 95.9835C209.359 97.7206 208.969 99.4391 208.357 101.086C208.253 101.364 207.934 101.699 207.701 101.5C207.437 100.254 206.219 99.2404 204.865 99.1398C203.511 99.0393 202.138 99.8603 201.667 101.052C201.574 101.287 201.247 101.375 200.988 101.31C200.794 101.261 200.628 101.151 200.47 101.033L200.313 100.913C198.7 99.6873 196.517 99.1431 194.465 99.4555C195.558 97.7351 196.944 96.1782 198.556 94.8618C199.215 94.3231 199.93 93.8151 200.763 93.5625C201.547 93.3247 202.389 93.327 203.212 93.3661C204.768 93.4402 206.318 93.6382 207.838 93.9572ZM281.39 72.063C280.605 71.281 279.531 70.7578 278.395 70.6091L279.684 69.0786C280.092 68.5988 280.569 68.1065 281.214 68.0308C281.678 67.9762 282.135 68.1545 282.558 68.343C283.973 68.9738 285.307 69.7638 286.521 70.6906C286.927 70.9999 287.334 71.3451 287.51 71.8059C287.687 72.2666 287.545 72.8696 287.073 73.0804C286.601 73.2911 285.921 72.8296 286.114 72.375L286.133 72.324C286.212 72.0655 286.087 71.7602 285.837 71.6242L285.381 72.4422C285.339 72.5137 285.29 72.5829 285.215 72.6218C284.911 72.7791 284.663 72.3365 284.644 72.0117L284.64 71.9667C284.607 71.6469 284.428 71.2389 284.114 71.3385C284.071 71.8864 283.652 72.3925 283.096 72.5681C282.54 72.7437 281.879 72.5784 281.49 72.1664L281.39 72.063ZM183.173 112.439L182.622 110.485C182.361 110.417 182.105 110.662 182.068 110.914C182.044 111.082 182.083 111.248 182.137 111.412L182.222 111.656C182.505 112.485 182.498 113.399 182.202 114.224C181.656 113.179 181.372 112.016 181.377 110.853C181.021 110.67 180.779 111.227 180.804 111.606L180.958 113.868C180.212 113.239 179.949 112.218 180.076 111.286C180.204 110.354 180.672 109.494 181.198 108.693C181.472 108.275 181.776 107.857 182.213 107.585C182.65 107.314 183.251 107.221 183.697 107.478C184.068 107.693 184.24 108.073 184.414 108.458L184.414 108.459L184.414 108.459L184.415 108.459C184.546 108.751 184.68 109.045 184.901 109.273C184.979 109.353 185.071 109.436 185.164 109.52L185.164 109.52C185.525 109.846 185.91 110.193 185.658 110.543C184.881 110.098 184.171 109.551 183.554 108.924C183.331 110.219 183.535 111.575 184.133 112.762C184.255 113.005 183.851 113.236 183.597 113.112C183.343 112.987 183.246 112.699 183.173 112.439ZM257.732 106.047C258.13 105.718 258.493 105.417 258.669 105.499C259.181 105.738 257.789 106.789 257.052 107.086C257.106 107.419 257.622 107.27 257.924 107.086C258.225 106.902 259.07 106.705 258.905 106.904C257.874 108.151 255.885 109.142 254.047 109.335C253.301 109.414 252.38 109.228 252.142 108.562C251.926 107.955 252.408 107.356 252.918 106.904L253.04 106.799C253.255 106.62 253.599 106.445 253.797 106.64C254.322 107.16 255.241 106.735 255.846 106.297C255.846 106.297 257.419 104.878 257.683 104.968C257.945 105.059 256.898 106.659 256.898 106.659C257.157 106.523 257.453 106.278 257.732 106.047ZM250.202 107.365C250.391 107.325 250.587 107.396 250.749 107.494C251.34 107.849 251.622 108.597 251.4 109.22C251.178 109.844 250.473 110.284 249.772 110.236C249.673 110.23 249.569 110.212 249.491 110.154C249.327 110.031 249.348 109.797 249.384 109.604L249.648 108.192C249.712 107.851 249.842 107.442 250.202 107.365ZM216.885 104.159C217.899 103.999 218.948 104.038 219.944 104.273C219.887 104.658 219.407 104.832 219 104.911C217.746 105.153 216.45 105.206 215.178 105.065C215.497 104.505 216.216 104.265 216.885 104.159ZM280.415 72.8485L277.755 71.3793C279.065 71.1961 280.463 71.84 281.106 72.9234C280.922 73.0807 280.63 72.9673 280.415 72.8485ZM222.138 102.314C221.011 102.593 219.896 102.918 218.799 103.287C219.939 103.877 221.558 103.405 222.138 102.314ZM211.118 100.98C211.428 101.04 211.288 101.497 211.04 101.682C210.286 102.245 209.141 102.294 208.336 101.797L211.118 100.98ZM281.89 66.9007C282.072 66.8603 282.26 66.9294 282.431 67.0016C283.542 67.4708 284.559 68.1325 285.416 68.9433L281.594 67.1178C281.653 67.0101 281.764 66.9286 281.89 66.9007ZM223.664 76.7631L223.702 76.7878C224.047 76.7414 224.402 76.7687 224.735 76.867C224.445 77.3796 224.041 77.8357 223.557 78.198C223.315 77.7487 223.358 77.1767 223.664 76.7631ZM289.062 71.7471L289.07 71.7697C289.492 71.9302 289.78 72.3587 289.75 72.7842C288.881 72.3622 288.177 71.6484 287.797 70.8033C288.317 70.9716 288.771 71.3107 289.062 71.7471ZM209.932 102.952L209.869 103.033C209.649 103.313 209.386 103.617 209.017 103.657C208.648 103.697 208.269 103.251 208.53 103.002C208.967 102.819 209.481 102.8 209.932 102.952ZM183.776 106.422C184.106 106.493 184.478 106.718 184.426 107.031C183.672 106.939 182.927 106.776 182.207 106.544C182.699 106.352 183.257 106.308 183.776 106.422ZM253.869 106.361C253.698 106.431 253.543 106.138 253.705 106.053C253.705 106.053 254.831 104.206 254.88 105.499C254.904 105.821 254.176 106.215 253.869 106.361ZM206.316 115.841C206.4 115.281 206.557 114.224 206.877 114.224C207.331 114.179 207.156 114.902 207.033 115.411C207 115.551 206.97 115.675 206.958 115.763C206.916 116.068 206.611 116.309 206.262 116.161C206.275 116.117 206.293 115.998 206.316 115.841ZM100.83 135.216C103.139 135.402 105.457 135.491 107.774 135.483C107.609 137.521 109.381 139.528 111.551 139.762C113.722 139.997 115.936 138.419 116.271 136.4C116.406 135.589 117.579 135.447 118.454 135.511L124.023 135.917C124.978 135.986 126.329 135.705 126.226 134.814L125.595 129.359C125.538 128.867 125.721 128.15 126.24 128.247C128.45 128.662 130.865 127.077 131.168 124.987C131.471 122.897 129.561 120.755 127.307 120.689C126.225 120.658 125.71 119.333 125.991 118.354C126.142 117.828 126.429 117.351 126.716 116.874L126.716 116.874C126.963 116.464 127.211 116.053 127.373 115.61C127.722 114.651 127.429 113.314 126.374 113.083C118.365 111.326 109.957 111.177 101.882 112.649L101.734 112.676C101.29 112.76 100.844 112.863 100.461 113.085C99.1995 113.816 99.1025 115.426 99.164 116.847L99.2051 117.636C99.4265 122.217 99.0411 126.824 98.0599 131.317L98.0379 131.419C97.8183 132.443 97.6398 133.613 98.3709 134.389C98.9125 134.965 99.7795 135.119 100.606 135.196L100.83 135.216ZM115.036 136.314C115.101 136.609 115.02 136.917 114.893 137.193L114.852 137.278C114.107 138.75 111.889 139.381 110.402 138.52C108.888 137.643 108.516 135.439 109.669 134.168C106.74 134.496 103.772 134.518 100.838 134.232C99.9294 134.144 98.7423 133.685 98.928 132.849C100.205 127.099 100.604 121.178 100.109 115.323C100.019 114.262 101.415 113.711 102.534 113.519C109.755 112.279 117.227 112.33 124.427 113.669C125.348 113.841 126.534 114.496 126.126 115.287C125.165 117.15 124.78 119.269 125.032 121.324C125.096 121.848 125.534 122.534 126.023 122.271C127.34 121.564 129.246 122.131 129.884 123.421C130.522 124.71 129.75 126.436 128.321 126.917C126.892 127.398 125.121 126.527 124.735 125.153C124.39 127.983 124.513 130.863 125.099 133.658C125.302 134.627 123.794 134.992 122.741 134.919L114.34 134.333C114.083 134.713 114.347 135.105 114.624 135.517C114.797 135.774 114.976 136.04 115.036 136.314ZM158.507 118.553L174.962 118.863L175.231 118.869C175.725 118.884 176.223 118.924 176.668 119.118C177.674 119.558 178.135 120.64 178.441 121.638C180.074 126.967 179.872 132.773 177.873 137.991L177.789 138.205C177.529 138.847 177.189 139.487 176.575 139.848C176.069 140.145 175.453 140.207 174.853 140.237L174.725 140.243C172.278 140.352 169.822 140.293 167.385 140.068C168.654 139.337 168.975 137.557 168.169 136.384C167.363 135.211 165.659 134.721 164.225 135.102C163.351 135.334 162.537 135.893 162.22 136.69C161.904 137.487 162.21 138.51 163.018 138.9C163.577 139.169 163.48 140.016 162.991 140.385C162.502 140.755 161.822 140.781 161.193 140.79L152.938 140.916C152.317 140.925 151.665 140.927 151.12 140.649C150.347 140.255 149.992 139.405 149.774 138.608C149.249 136.683 149.178 134.651 149.568 132.698C150.037 134.24 152.069 135.177 153.662 134.585C155.255 133.994 156.048 132.009 155.259 130.586C154.471 129.162 152.28 128.623 150.845 129.5L150.785 129.002C150.579 127.258 150.419 125.491 150.777 123.773C151.169 121.892 152.288 120.044 154.122 119.189C155.46 118.565 157.004 118.531 158.507 118.553ZM176.47 120.164C176.058 119.932 175.561 119.892 175.078 119.873L174.957 119.869C169.838 119.69 164.716 119.599 159.594 119.597L157.887 119.6C156.807 119.603 155.691 119.618 154.703 120.025C153.228 120.632 152.272 122.042 151.882 123.505C151.492 124.968 151.585 126.501 151.681 128.006C154.275 127.338 157.065 129.803 156.757 132.304C156.45 134.804 153.487 136.609 150.846 136.127C150.726 136.917 150.609 137.737 150.856 138.501C151.104 139.264 151.829 139.954 152.681 139.929L160.335 139.698C160.809 139.684 161.464 139.455 161.326 139.03C160.544 136.62 162.801 133.806 165.493 133.835C168.186 133.863 170.374 136.724 169.534 139.117C171.216 139.471 172.965 139.546 174.675 139.336C175.23 139.268 175.81 139.158 176.235 138.817C176.653 138.482 176.859 137.975 177.033 137.486C178.81 132.507 179.004 127.044 177.586 121.965C177.403 121.309 177.148 120.602 176.56 120.219L176.47 120.164ZM103.844 167.582C103.03 162.622 103.031 157.545 103.848 152.584L103.889 152.344C104.092 151.218 104.448 150.03 105.453 149.41C106.206 148.946 107.157 148.911 108.063 148.91L115.005 148.928C115.321 148.929 115.668 148.94 115.905 149.135C116.143 149.33 116.136 149.777 115.832 149.856C115.105 150.045 114.687 150.829 114.775 151.53C114.863 152.231 115.35 152.838 115.923 153.298C117.287 154.395 119.408 154.785 120.919 153.87C122.429 152.956 122.784 150.599 121.353 149.578C124.596 149.517 127.84 149.526 131.082 149.607L132.298 149.641C132.691 149.652 133.125 149.682 133.4 149.945C133.606 150.143 133.674 150.43 133.72 150.703C134.079 152.802 133.686 155.008 132.62 156.886C132.45 157.185 132.056 157.515 131.788 157.287C130.649 156.32 128.733 156.451 127.567 157.391C126.402 158.33 125.951 159.89 126.157 161.317C126.355 162.69 127.425 164.156 128.904 164.087C129.321 164.067 129.754 163.933 130.18 163.801C130.943 163.564 131.679 163.335 132.245 163.795L130.762 169.994C130.498 171.095 130.025 172.401 128.846 172.637C122.036 174 114.897 173.897 108.135 172.338L107.807 172.261C106.987 172.06 106.17 171.8 105.529 171.287C104.415 170.395 104.067 168.939 103.844 167.582ZM130.93 164.903C129.004 165.751 126.494 165.024 125.289 163.382C124.083 161.741 124.201 159.396 125.438 157.775C126.675 156.154 128.898 155.293 131.019 155.462L131.196 155.477C131.494 155.5 131.799 155.511 132.051 155.371C132.371 155.196 132.507 154.834 132.596 154.498C132.95 153.155 132.93 151.728 132.539 150.394L123.565 150.455C123.728 152.786 121.678 155.06 119.195 155.302C116.711 155.544 114.204 153.714 113.85 151.402L113.801 151.058C113.747 150.712 113.664 150.369 113.387 150.149C113.193 149.994 112.938 149.933 112.685 149.886L112.591 149.869C109.98 149.407 106.67 149.216 105.299 151.346C104.833 152.071 104.707 152.939 104.612 153.781C104.067 158.614 104.197 163.513 104.997 168.315L105.036 168.539C105.166 169.254 105.37 169.988 105.938 170.467C106.329 170.797 106.842 170.96 107.351 171.095L107.478 171.128C113.99 172.803 120.922 173.027 127.542 171.778L127.909 171.707C128.235 171.643 128.573 171.57 128.829 171.371C129.162 171.111 129.29 170.693 129.401 170.302L130.93 164.903ZM179.361 177.184C179.361 177.184 179.398 176.218 179.528 175.901C179.764 175.328 180.458 174.513 180.458 174.513C180.41 174.733 180.342 174.969 180.273 175.213L180.272 175.213L180.272 175.213L180.272 175.213C180.034 176.048 179.77 176.97 180.171 177.652C180.48 178.179 185.001 180.951 186.555 181.6C193.201 184.378 199.879 186.892 206.59 189.418C209.334 190.451 212.083 191.486 214.838 192.542C210.107 192.003 205.752 189.943 201.508 187.915C200.592 192.669 203.424 197.462 207.244 200.711C210.026 203.078 213.301 204.832 216.575 206.586C217.798 207.241 219.02 207.896 220.216 208.582L220.656 208.837C224.901 211.323 228.961 214.461 230.835 218.789C231.179 219.583 232.234 220.035 233.101 219.76C233.968 219.484 234.511 218.525 234.267 217.699C235.175 218.396 234.651 219.953 233.552 220.338C232.452 220.723 231.192 220.2 230.38 219.407C229.769 218.809 229.342 218.079 228.916 217.349C228.777 217.11 228.637 216.872 228.491 216.638C225.871 212.435 221.242 209.825 216.65 207.436L214.494 206.32C209.511 203.717 204.405 200.59 202.27 195.662C194.522 196.812 186.455 196.032 179.122 193.423C177.554 192.865 176.018 192.225 174.483 191.586L174.483 191.586L174.483 191.586C172.037 190.567 169.593 189.549 167.023 188.864C165.59 188.482 163.616 188.441 163.079 189.741C163.079 189.741 163.079 189.741 163.079 189.741L163.079 189.742L163.077 189.744C163.062 189.769 162.96 189.937 162.503 189.973C162.288 189.99 162.092 189.639 162.031 189.406C161.978 189.341 161.961 189.157 161.961 188.779C161.961 188.575 162.404 187.685 163.239 187.134C163.82 186.751 164.473 186.612 164.816 186.539C164.97 186.507 165.061 186.487 165.054 186.465C165.036 186.414 164.442 186.27 163.903 186.514C163.486 186.703 163.092 186.953 162.73 187.183C162.169 187.538 161.684 187.844 161.312 187.804C160.807 187.749 160.449 187.529 160.443 187.054C160.438 186.579 160.573 186.001 160.964 185.702C161.802 185.065 162.883 184.713 163.963 184.728C164.196 184.731 164.454 184.762 164.606 184.927C164.758 185.092 164.684 185.423 164.451 185.432C163.051 185.491 161.433 185.71 160.888 187.054C160.729 187.445 161.731 187.507 162.118 187.299C162.343 187.178 162.536 187.015 162.729 186.852C162.869 186.735 163.009 186.617 163.161 186.514C163.616 186.208 164.182 186.048 164.742 186.067C164.968 186.074 165.216 186.123 165.35 186.294C165.483 186.465 165.389 186.775 165.163 186.778C163.712 186.8 162.387 187.977 162.288 189.331C162.294 189.38 162.334 189.604 162.503 189.657C162.7 189.719 162.918 189.568 162.927 189.553C163.683 188.291 165.062 187.448 166.545 187.87C167.105 188.03 167.644 188.273 168.181 188.515C169.121 188.938 170.053 189.358 171.077 189.323L170.462 186.274C167.97 184.136 164.214 183.383 161.005 184.376C160.661 184.483 160.29 184.637 160.15 184.949C160.01 185.261 160.318 185.714 160.655 185.593C160.124 186.053 159.226 185.273 159.428 184.622C159.63 183.972 160.393 183.638 161.093 183.468C165.024 182.512 168.942 184.178 172.729 185.788C173.432 186.087 174.13 186.384 174.823 186.661C182.533 189.753 191.244 190.618 199.476 189.109C199.118 190.023 197.901 190.299 196.867 190.408C189.535 191.179 182.004 190.235 175.148 187.686C174.31 188.681 174.709 190.227 175.662 191.127C176.615 192.027 177.963 192.435 179.261 192.798C186.53 194.831 194.238 196.385 201.666 194.94L200.462 188.35L200.438 188.23C200.378 187.967 200.269 187.695 200.007 187.612L199.94 187.591C190.419 184.566 183.162 182.261 173.74 173.859C173.721 173.842 173.703 173.825 173.685 173.807C173.615 176.333 172.759 176.888 169.189 176.2C161.4 174.698 153.426 173.912 145.564 174.945C146.159 172.196 146.903 169.476 147.794 166.799C145.236 167.571 142.216 165.378 142.382 162.868C142.547 160.359 145.832 158.529 148.269 159.589C149.107 157.782 149.16 155.67 148.414 153.828C148.056 152.944 149.482 152.434 150.492 152.434L156.073 152.433C156.853 152.433 157.941 152.094 157.747 151.387C157.287 149.71 158.52 147.795 160.318 147.39C162.084 146.992 164.072 148.124 164.528 149.763L164.552 149.854C164.975 151.615 167.359 152.174 169.288 152.139L170.248 152.118C171.916 152.085 173.655 152.136 174.771 153.227C176.107 154.533 175.808 156.612 175.368 158.384L175.339 158.502C175.124 159.348 174.811 160.037 174.496 160.729C173.896 162.047 173.29 163.38 173.344 165.853C173.366 166.861 173.405 167.786 173.449 168.633C173.604 168.038 173.74 167.645 173.74 167.645C173.74 167.645 191.93 180.315 203.165 182.035C204.511 180.922 203.734 178.754 202.378 177.652C201.806 177.188 201.156 176.813 200.507 176.438L200.507 176.438C199.616 175.924 198.729 175.412 198.053 174.674C196.71 173.207 196.47 171.186 196.232 169.182C195.973 167.004 195.717 164.845 194.048 163.441C193.899 163.316 193.74 163.199 193.581 163.082C193.224 162.818 192.867 162.554 192.624 162.199C192.022 161.318 192.318 160.093 193.046 159.301C193.775 158.509 194.841 158.067 195.896 157.722C198.085 157.007 200.486 156.608 202.722 157.184C204.958 157.76 206.96 159.502 207.18 161.662C207.604 160.803 208.535 160.182 209.542 160.087L208.081 161.54L209.93 161.574L207.386 162.904C208.963 165.632 208.708 168.998 207.696 171.952C207.573 172.314 207.438 172.676 207.303 173.038L207.303 173.039C206.762 174.489 206.218 175.95 206.357 177.464C206.529 179.324 208.295 181.225 210.226 180.844L210.322 180.823C212.643 180.275 215.184 180.592 217.269 181.691C219.701 182.973 221.356 185.146 222.994 187.296L222.994 187.297C223.374 187.796 223.754 188.294 224.141 188.779C225.959 191.053 228.11 193.168 230.8 194.486C233.489 195.803 236.786 196.238 239.588 195.144C240.103 194.943 240.598 194.693 241.092 194.443C241.932 194.02 242.769 193.597 243.697 193.417C245.172 193.131 247.05 193.806 247.225 195.206C246.462 194.013 244.654 193.802 243.232 194.204C242.43 194.431 241.689 194.802 240.948 195.173C240.376 195.46 239.803 195.747 239.201 195.968C236.184 197.076 232.671 196.405 229.893 194.842C227.203 193.328 225.095 191.068 223.194 188.726L223.011 188.499C222.816 188.258 222.623 188.015 222.43 187.772C221.093 186.092 219.747 184.399 217.982 183.12C216.003 181.686 213.345 180.839 210.962 181.527L210.816 181.571C208.537 182.293 206.122 180.253 205.712 178.035C205.302 175.816 206.269 173.6 207.215 171.529C208.191 169.394 206.399 166.902 204.139 165.94C202.043 165.047 199.525 165.067 197.445 165.994C196.772 166.294 196.65 167.121 196.672 167.828L196.675 167.906C196.792 170.403 197.505 173.026 199.453 174.736C200.032 175.245 200.701 175.655 201.369 176.065C202.205 176.578 203.039 177.089 203.692 177.79C204.868 179.05 205.049 181.412 203.416 182.093C206.217 182.566 208.989 183.193 211.713 183.969C197.06 182.566 183.588 176.101 173.915 168.292C173.717 168.653 173.578 169.036 173.493 169.428C173.515 169.82 173.538 170.193 173.56 170.548C173.591 171.049 173.62 171.514 173.642 171.945C174.108 173.378 175.196 174.642 176.691 175.197C176.572 174.19 176.935 173.142 177.662 172.391C177.19 173.378 176.442 175.269 179.361 177.184ZM201.868 157.888C200.564 157.66 199.239 157.54 197.912 157.527C197.822 157.683 197.788 157.867 197.817 158.042C199.296 158.157 200.752 158.522 202.094 159.113C201.533 159.638 200.606 159.323 199.853 159.068L199.809 159.053C198.522 158.617 197.109 158.512 195.765 158.751C195.079 158.873 194.393 159.093 193.865 159.52C193.337 159.947 192.991 160.611 193.109 161.255C193.26 162.077 194.086 162.639 194.911 162.955C196.956 163.739 199.408 163.518 201.255 162.383C201.405 162.291 201.616 162.445 201.625 162.612C201.634 162.78 201.513 162.927 201.386 163.046C200.65 163.731 199.554 163.95 198.517 164.006C198.214 164.023 197.91 164.028 197.605 164.034L197.605 164.034C196.866 164.047 196.128 164.061 195.416 164.23C195.512 164.78 196.246 164.969 196.841 165.01C199.112 165.164 201.417 164.878 203.567 164.175C204.105 163.999 204.6 164.504 204.917 164.947L207.233 168.18C207.994 167.51 207.949 166.352 207.59 165.434C207.45 165.076 207.271 164.73 207.093 164.385L207.093 164.384L207.093 164.384L207.093 164.384L207.093 164.384C206.815 163.845 206.538 163.308 206.407 162.725C206.336 162.404 206.31 162.074 206.284 161.745C206.248 161.283 206.211 160.823 206.048 160.388C205.472 158.857 203.574 158.185 201.868 157.888ZM173.891 187.401L171.789 186.271C171.555 186.146 171.126 186.125 171.149 186.375C171.077 187.391 171.166 188.634 171.863 189.48C172.303 190.013 172.62 190.286 174.173 190.647L174.059 187.804C174.053 187.653 174.031 187.476 173.891 187.401ZM205.902 171.936C206.158 171.797 206.321 171.55 206.473 171.313C206.745 170.889 207.025 170.44 207.037 169.946C207.05 169.452 206.684 168.913 206.156 168.893C205.894 168.883 205.644 169 205.429 169.143C204.953 169.458 204.585 169.915 204.393 170.43C204.636 170.758 205.186 170.465 205.431 170.138C205.676 169.812 206.038 169.399 206.427 169.562C206.17 170.395 205.716 171.175 205.106 171.828C205.269 172.059 205.647 172.074 205.902 171.936ZM210.108 195.949C209.523 195.08 208.892 194.142 207.85 193.86C210.161 197.929 213.743 201.357 218.038 203.611C219.538 204.399 221.12 205.045 222.7 205.691C224.904 206.592 227.105 207.492 229.077 208.77C231.547 210.371 233.589 212.545 234.971 215.041C234.428 211.481 231.246 208.757 227.85 207.074C226.312 206.312 224.697 205.698 223.082 205.084L223.082 205.084C221.13 204.342 219.179 203.6 217.368 202.598C214.482 201.002 212.008 198.757 210.214 196.107L210.165 196.034L210.108 195.949L210.108 195.949ZM217.367 197.152L217.431 197.286C217.716 197.902 217.913 198.676 217.379 199.092C216.953 199.425 216.308 199.298 215.806 199.077C214.721 198.601 213.824 197.759 213.318 196.743C213.952 196.625 214.545 196.327 215 195.898C215.378 195.542 216.047 195.614 216.472 195.919C216.898 196.225 217.14 196.697 217.367 197.152ZM217.022 198.609C217.569 197.691 216.454 196.337 215.909 196.249C215.672 196.21 215.428 196.43 215.165 196.666C214.895 196.908 214.606 197.167 214.287 197.182C214.287 197.182 216.476 199.527 217.022 198.609ZM244.595 201.249C257.87 200.841 270.829 194.792 279.16 185.114C279.591 184.613 280.445 184.605 281.044 184.919C281.644 185.234 282.049 185.787 282.432 186.321C282.85 186.264 282.862 185.658 282.574 185.369C282.432 185.226 282.254 185.123 282.076 185.019L282.076 185.019C281.893 184.913 281.71 184.806 281.566 184.658C280.986 184.057 281.296 183.112 281.636 182.368L283.15 179.05C283.353 178.606 283.671 178.087 284.187 178.094C284.565 178.099 284.856 178.394 285.096 178.667C287.709 181.646 290.134 184.77 292.352 188.017C290.985 188.215 289.67 187.585 288.373 186.963C286.924 186.269 285.498 185.585 284.045 186.078C282.779 186.507 282.033 187.7 281.362 188.792C279.17 192.366 276.658 195.808 273.476 198.658C266.087 205.276 255.777 208.14 245.732 209.951C251.945 212.151 258.789 212.768 265.338 211.719C269.085 211.118 272.821 209.935 275.742 207.658C276.924 206.736 277.95 205.654 278.971 204.576L286.493 196.632C286.934 196.167 287.746 196.614 288.157 197.102C288.567 197.591 289.124 198.2 289.749 197.992C289.302 197.053 288.524 196.256 287.566 195.753C287.509 194.632 287.474 193.432 288.111 192.482C288.747 191.531 290.335 191.068 291.161 191.881C293.869 194.547 296.465 197.313 298.939 200.171C297.487 200.385 296.108 199.8 294.739 199.22L294.738 199.22L294.738 199.22C294.315 199.04 293.893 198.862 293.47 198.707C291.678 198.052 289.167 198.066 288.35 199.695C286.115 204.151 283.794 208.721 279.958 212.09C273.552 217.717 264.192 218.987 255.46 219.914C251.588 220.325 247.61 220.714 243.84 219.792C241.096 219.121 238.599 217.785 236.139 216.464L234.187 215.415C233.612 215.55 234.073 216.364 234.584 216.646C237.852 218.449 241.221 220.286 244.969 220.839C245.924 220.98 246.891 221.034 247.857 221.068C256.751 221.381 265.712 219.921 273.97 216.815C277.414 215.519 280.919 213.787 282.81 210.8L289.474 200.271C289.729 199.867 290.01 199.442 290.463 199.241C291.015 198.998 291.664 199.153 292.25 199.312L298.497 201.01C299.135 201.183 299.728 200.483 299.662 199.864C299.595 199.245 299.117 198.744 298.664 198.289L292.903 192.521C292.143 191.76 291.326 190.966 290.253 190.689C289.179 190.412 287.8 190.9 287.59 191.923C286.97 194.942 284.765 197.43 282.637 199.773C279.344 203.4 275.915 207.126 271.344 209.213C264.788 212.205 257.042 211.336 249.864 210.121L254.518 208.852C256.822 208.225 259.129 207.596 261.363 206.775C270.026 203.59 277.405 197.446 281.79 189.765C282.552 188.432 283.447 186.891 285.037 186.623C286.344 186.404 287.458 187.125 288.597 187.863C289.274 188.302 289.96 188.746 290.7 189.002C291.792 189.379 293.487 188.842 293.23 187.78C293.172 187.54 293.016 187.333 292.864 187.132L286.938 179.316C286.116 178.232 284.884 177.007 283.531 177.414C282.444 177.741 282.036 178.915 281.676 179.95L281.664 179.986L281.612 180.135C279.925 184.943 275.389 188.302 271.085 191.367C269.201 192.708 267.313 194.052 265.28 195.186C259.343 198.5 252.38 199.903 245.481 200.322C243.531 200.441 242.306 202.151 241.185 203.717C241.051 203.903 240.92 204.087 240.788 204.266C238.868 206.884 236.133 208.972 233.007 210.208C233.53 210.749 234.483 210.425 235.144 210.038C238.28 208.204 240.941 205.664 242.836 202.692C243.255 202.037 243.779 201.275 244.595 201.249ZM202.944 173.195C202.639 173.821 201.958 174.271 201.227 174.332C200.495 174.393 199.74 174.062 199.322 173.497C199.168 173.289 199.169 172.883 199.438 172.905C199.998 173.601 201.165 173.781 201.934 173.29C202.267 173.077 202.844 172.83 202.944 173.195ZM197.06 168.651C197.126 168.127 197.599 167.672 198.156 167.594C198.714 167.516 199.307 167.823 199.534 168.306C199.127 168.306 198.853 168.237 198.626 168.179C198.163 168.062 197.89 167.993 197.06 168.651ZM201.382 171.569L200.748 171.823L200.711 171.803C200.546 172.097 200.062 171.765 200.025 171.435C200.021 171.406 200.019 171.376 200.017 171.346C200.014 171.306 200.012 171.264 200.01 171.223V171.223C199.995 170.944 199.981 170.654 199.734 170.528C199.426 170.943 199.285 171.49 199.464 171.966C199.644 172.443 200.189 172.805 200.721 172.715C201.252 172.626 201.634 172.016 201.382 171.569ZM202.144 167.522C202.947 167.582 203.16 167.623 203.382 168.116C203.425 168.214 203.082 168.122 202.755 168.035C202.515 167.971 202.283 167.909 202.22 167.926C199.534 168.671 201.341 167.461 202.144 167.522ZM201.917 168.82C202.361 169.148 202.232 170.459 201.578 170.212C201.303 170.109 200.976 168.121 201.917 168.82ZM223.15 203.904C222.939 203.657 223.179 203.216 223.517 203.232C223.666 203.322 223.767 203.478 223.785 203.644C223.657 203.839 223.392 203.945 223.153 203.898L223.15 203.904ZM217.119 201.35L217.58 201.284L217.616 201.272C217.777 200.992 217.253 200.672 217.044 200.922C216.998 201.066 217.026 201.228 217.119 201.35ZM220.403 203.052C220.135 203.12 220.099 202.69 220.249 202.472L220.888 202.744C220.789 202.906 220.607 203.02 220.41 203.043L220.403 203.052ZM212.429 196.791C212.358 196.627 212.105 196.564 211.956 196.674L211.997 196.712C211.869 196.869 211.971 197.136 212.175 197.182C212.364 197.165 212.5 196.955 212.429 196.791ZM198.402 170.243C198.145 170.243 197.876 170.007 197.89 169.599C197.903 169.19 198.022 168.813 198.402 169.013C198.783 169.214 198.667 170.243 198.402 170.243ZM78.6887 120.602C78.8434 120.793 79.1972 120.709 79.3334 120.507C79.4695 120.304 79.4524 120.046 79.4278 119.808C79.0715 116.366 78.1164 112.978 76.6114 109.818C76.1828 108.919 75.732 107.797 76.3883 107.026C77.9055 110.574 79.4355 114.165 79.9881 117.951C80.139 118.984 80.1931 120.115 79.5773 120.985C78.9615 121.854 77.4272 122.187 76.743 121.364C77.7953 121.158 78.6004 120.162 78.5245 119.158C79.0106 119.468 79.0942 120.204 78.6887 120.602ZM90.9526 188.96C96.4579 188.678 102.836 187.934 105.724 183.54C106.472 182.401 106.313 180.609 106.181 179.133C106.075 177.947 105.988 176.965 106.404 176.687C107.338 176.064 108.086 177.671 108.086 177.671C108.113 177.565 108.145 177.433 108.18 177.285C108.441 176.19 108.921 174.173 109.676 174.552C109.987 174.708 109.88 175.688 109.807 176.362L109.807 176.362C109.789 176.52 109.774 176.661 109.766 176.771C109.749 176.875 109.746 176.962 109.759 177.024C109.77 177.02 109.781 177.014 109.792 177.007C109.797 177.006 109.802 177.004 109.808 176.999C109.812 176.996 109.816 176.991 109.821 176.986C109.943 176.89 110.111 176.651 110.297 176.386C110.682 175.837 111.148 175.173 111.461 175.417C111.951 175.801 110.207 178.247 110.207 178.247C110.207 178.247 112.279 176.117 112.454 177.024C112.628 177.93 107.91 186.117 103.651 189.327C99.3922 192.538 93.3911 194.336 87.9648 193.692C88.0859 191.679 88.8004 189.071 90.9526 188.96ZM109.821 176.986C109.811 176.994 109.802 177.001 109.792 177.007C109.759 177.012 109.756 176.921 109.766 176.771C109.806 176.534 109.925 176.21 110.114 175.9C110.078 176.006 110.042 176.109 110.008 176.206C109.857 176.64 109.748 176.954 109.861 176.929C109.846 176.955 109.833 176.973 109.821 176.986ZM110.847 175.139C110.542 175.319 110.295 175.603 110.114 175.9C110.396 175.062 110.683 174.006 109.987 173.921C108.807 173.778 107.653 175.575 107.858 176.529C107.531 175.769 106.168 176.098 105.838 176.857C105.585 177.44 105.693 178.078 105.8 178.712L105.8 178.712L105.8 178.712C105.832 178.904 105.864 179.096 105.887 179.285C106.241 182.313 103.814 185.144 100.872 186.45C98.0982 187.681 94.9502 187.854 91.871 187.943L91.1527 187.963C89.3949 188.006 87.4912 187.968 86.1496 186.918C84.7673 185.837 84.7689 183.271 86.5045 182.817C90.9106 181.666 94.2716 177.65 94.4084 173.372C94.4489 172.108 95.3253 171.056 96.1724 170.039L96.1744 170.037L96.1759 170.035C96.2508 169.945 96.3255 169.855 96.3993 169.766L96.5854 169.538C97.5336 168.361 98.313 166.74 97.5169 165.469C96.2834 166.95 93.9726 167.547 92.1018 166.868C91.3212 166.585 90.6297 166.112 89.9424 165.642C89.0221 165.013 88.1094 164.388 87.001 164.232C84.8334 163.927 82.6834 165.98 83.0544 168.001C82.4676 167.54 81.5569 168.238 81.4934 168.952C81.4561 169.372 81.5741 169.78 81.6926 170.19L81.6926 170.19C81.7757 170.478 81.8591 170.767 81.8893 171.061C81.9245 171.403 81.887 171.746 81.8494 172.089C81.8241 172.321 81.7987 172.553 81.7957 172.785C81.78 173.988 82.353 175.101 82.9172 176.198C82.9742 176.309 83.031 176.419 83.0872 176.53L83.2381 176.83C83.8806 178.133 84.3571 179.684 83.6724 180.968C82.9878 182.252 80.6572 182.655 79.997 181.36C76.7609 175.011 69.4263 170.689 61.9081 170.699C53.2034 170.712 45.3715 176.078 40.2416 182.657C39.6018 183.477 38.9756 184.361 38.8362 185.369C38.6967 186.376 39.1963 187.532 40.2205 187.869C41.2447 188.206 42.5728 187.263 42.239 186.297C42.7587 186.864 43.8214 186.328 44.0661 185.616C44.2037 185.217 44.202 184.795 44.2003 184.372C44.199 184.043 44.1977 183.712 44.2624 183.39C44.5797 181.812 46.3144 180.901 47.8757 180.235L48.1906 180.101C51.8683 178.544 55.7 177.154 59.7227 176.89C63.8604 176.618 68.2757 177.694 71.1192 180.519C67.2393 181.38 64.9861 185.022 63.1901 188.386L62.9409 188.855C61.1275 192.261 58.7524 195.978 54.7758 196.7C54.9269 197.434 55.6196 198.041 56.4123 198.135L41.834 206.243L42.9524 207.54C39.4029 212.629 35.3884 217.435 30.9671 221.886C28.5632 224.307 25.4418 226.815 21.9618 226.251C21.3326 226.15 20.7224 225.947 20.1144 225.746C19.2241 225.451 18.3384 225.158 17.4036 225.183C15.8305 225.225 14.2518 227.015 15.3196 228.096C17.6845 230.491 20.3836 232.597 23.3268 234.344L23.403 234.389C23.7613 234.597 24.1554 234.792 24.5708 234.748C24.9908 234.703 25.3327 234.423 25.6451 234.157L45.389 217.316C47.006 215.948 48.7855 214.579 50.9396 214.378L51.1214 214.357C52.7146 214.15 54.027 213.208 55.3432 212.263C55.9163 211.851 56.4901 211.439 57.0881 211.087C59.1115 209.896 62.4678 209.774 63.2548 211.886C63.673 213.008 63.1256 214.15 62.5861 215.275C62.4253 215.61 62.2652 215.944 62.1316 216.275C61.5497 217.719 62.0265 219.939 63.6753 219.912L72.9026 219.759C73.2342 219.756 73.5835 219.773 73.8413 219.963C74.1112 220.161 74.2058 220.492 74.2577 220.816L74.2791 220.964C74.6266 223.608 74.5786 226.297 74.1371 228.929C73.6587 231.781 72.3855 234.917 69.5092 235.963C67.695 236.622 65.6742 236.28 63.7634 235.871L52.1528 233.334C52.1334 232.018 53.4054 230.947 54.7614 230.599C55.9111 230.303 57.1187 230.393 58.3146 230.483L58.5349 230.499L58.9567 230.528C61.8951 230.717 64.8657 230.462 67.7181 229.775L63.6023 220.14C64.0219 223.339 64.9468 226.479 66.3376 229.427L52.8073 229.838C51.6292 229.869 50.3212 229.82 49.5292 229.016C49.3258 228.809 49.1564 228.555 48.9885 228.304C48.6437 227.787 48.3052 227.279 47.693 227.213C47.164 227.156 46.6847 227.486 46.2796 227.809C43.6343 229.92 41.4379 232.521 39.8554 235.417C40.426 236.739 42.3162 237.109 43.7847 236.729C44.6438 236.508 45.4278 236.108 46.2134 235.707C46.7708 235.423 47.3289 235.139 47.915 234.917C51.1857 233.68 54.7813 234.519 58.2353 235.492L60.2869 236.076C64.3413 237.215 69.2847 237.799 72.323 235.042C74.1159 233.414 74.7691 230.993 75.1241 228.68C76.1484 222.005 75.318 215.088 72.7363 208.792C75.6148 207.753 76.9732 204.741 78.0292 202.029L80.0973 196.718C80.7883 194.943 82.358 192.766 84.2266 193.481C89.5681 195.525 95.8772 194.661 100.85 191.921C105.823 189.182 109.546 184.745 112.053 179.883L112.121 179.751C112.611 178.785 113.237 176.531 112.678 176.281C112.47 176.128 112.099 176.382 111.846 176.555C111.709 176.648 111.607 176.718 111.584 176.687C111.57 176.669 111.615 176.544 111.68 176.367L111.68 176.367C111.936 175.671 112.487 174.168 110.847 175.139ZM75.4991 204.952C74.8529 206.311 73.7836 207.911 72.2053 207.73C71.3602 207.633 70.7218 207.037 70.1475 206.423L69.8398 206.09C66.5041 202.468 61.9726 200.06 57.4181 197.844L55.9007 197.111C59.6106 196.428 61.8993 192.996 63.5335 189.806L64.0543 188.79C65.5487 185.891 67.249 182.91 70.3312 181.605C70.7572 181.424 71.2459 181.281 71.6852 181.431C71.711 181.439 71.7375 181.449 71.7647 181.458C71.8078 181.474 71.8526 181.49 71.8984 181.506C72.4409 181.701 73.1395 181.952 73.1284 181.472C72.1394 181.099 71.9768 179.749 72.5472 178.907C73.0681 178.137 73.9702 177.693 74.8635 177.311L75.1182 177.203C74.5484 176.468 73.3134 177.086 72.6681 177.764L72.615 177.819C71.9675 178.484 70.9736 179.211 70.2262 178.671C67.138 176.439 63.0221 175.722 59.1375 176.073C55.2528 176.423 51.5465 177.752 47.9976 179.271C46.6969 179.828 45.3758 180.435 44.4105 181.422C43.6638 182.186 43.5864 183.203 43.5086 184.225C43.4858 184.524 43.463 184.824 43.4234 185.118C43.3276 185.828 42.9097 185.855 42.5417 185.879C42.3445 185.892 42.1615 185.904 42.0501 186.02C42.0411 186.029 42.0123 186.07 41.9689 186.133C41.7479 186.45 41.15 187.309 40.8799 187.224C40.4833 187.098 40.6856 186.297 40.6856 186.297C40.6856 186.297 39.5084 186.611 39.4208 186.297C39.1143 185.196 40.8799 182.942 40.8799 182.942C43.8485 178.857 48.2507 175.467 53.0907 173.497C58.0202 171.49 63.7726 171.102 68.8119 172.854C74.4932 174.83 78.992 179.548 80.4424 185.054C80.804 186.426 82.5106 187.032 84.0018 187.26C84.0899 187.274 84.1786 187.287 84.2678 187.3C84.3207 187.308 84.3738 187.316 84.4271 187.323C85.8034 187.525 87.2668 187.738 88.144 188.721C88.4025 189.011 88.331 189.44 88.2422 189.808L88.2162 189.914C87.8891 191.227 87.3184 192.697 85.9547 193.095C84.7154 193.457 83.2469 192.522 83.1521 191.311C83.1438 191.204 83.1413 191.091 83.1388 190.977C83.1283 190.506 83.1174 190.01 82.6948 189.816L75.4991 204.952ZM63.7789 212.132C63.3155 209.904 61.9069 207.9 60.0588 206.429C60.1309 207.305 60.5269 208.155 61.1638 208.8C58.032 209.731 55.0786 211.185 52.4845 213.072C51.7902 213.577 50.6106 214.038 50.204 213.309C48.6041 210.438 46.0572 208.038 43.001 206.519L55.5656 199.765C56.1334 199.459 56.7341 199.145 57.389 199.139C57.8967 199.135 58.379 199.317 58.8381 199.528L59.0657 199.636C63.7675 201.902 67.9763 205.058 71.3629 208.858C72.2015 209.799 72.5917 211.004 72.9239 212.196L74.4184 217.658C74.5174 218.02 74.59 218.468 74.287 218.711C74.1165 218.847 73.8764 218.871 73.6525 218.887L73.3903 218.906C69.6699 219.174 66.6683 219.39 62.9409 218.887C62.3847 217.89 62.805 216.653 63.239 215.377C63.6109 214.283 63.9928 213.16 63.7789 212.132ZM45.0872 208.773C46.4813 209.922 47.7381 211.216 48.8267 212.624C48.9432 212.775 49.063 212.943 49.0506 213.128C49.0361 213.345 48.8486 213.511 48.6741 213.654L32.4348 226.95C31.7577 227.505 30.6775 227.408 29.919 226.955C29.2554 226.558 28.7808 225.951 28.3455 225.331L28.1608 225.066C32.3931 222.985 35.1079 219.258 37.8469 215.497C39.5649 213.138 41.2925 210.767 43.4099 208.78C43.6157 208.587 43.8479 208.387 44.1376 208.357C44.4959 208.319 44.8166 208.55 45.0872 208.773ZM92.3782 171.685L92.7926 171.805C93.6001 172.038 93.7343 173.05 93.6315 173.835C93.2059 177.084 91.0469 180.301 87.718 181.31L87.5991 181.348C85.4298 182.064 83.879 184.187 83.9717 186.34C82.5156 186.596 80.9545 185.506 80.8015 184.127C80.771 183.853 80.8579 183.496 81.1498 183.454C82.4727 183.264 83.6895 182.504 84.385 181.434C85.0805 180.365 85.2417 179.005 84.8137 177.818C84.7263 177.576 84.6152 177.333 84.5039 177.09C84.1875 176.4 83.87 175.706 84.0922 175.01C84.5992 175.054 84.6954 175.704 84.6419 176.178L84.6361 176.235C84.595 176.702 84.6832 177.301 85.1674 177.364C85.4867 176.678 85.553 175.91 85.6189 175.149C85.702 174.187 85.7844 173.234 86.3741 172.467C87.0482 171.591 88.2575 171.189 89.4115 171.176C90.4212 171.165 91.4085 171.41 92.3782 171.685ZM19.4127 226.471L19.5168 226.358C20.098 226.239 20.653 226.936 20.3652 227.423C20.1805 227.735 20.7484 228.045 21.0655 227.846C21.3826 227.647 21.4465 227.243 21.4814 226.888C21.8004 226.794 22.0764 227.136 22.1366 227.444C22.1525 227.525 22.1624 227.609 22.1723 227.693C22.1998 227.927 22.2274 228.162 22.3854 228.338C22.6002 228.578 23.1693 228.454 23.076 228.154C22.9367 227.706 23.5024 227.34 23.9961 227.274C24.1147 227.258 24.2372 227.249 24.3599 227.239L24.3603 227.239C24.7485 227.21 25.1399 227.18 25.4225 226.944L25.4651 226.912C25.8238 226.674 26.2679 227.114 26.5386 227.505L26.6645 227.695C27.2597 228.56 28.2715 229.167 29.3623 229.305C29.576 229.332 29.4673 229.644 29.3103 229.782L25.6289 233.025C25.4504 233.183 25.1612 233.071 24.9522 232.951C22.767 231.699 20.7497 230.191 18.9625 228.474C18.3995 227.933 18.877 227.069 19.4127 226.471ZM51.607 232.507C51.5008 232.916 51.199 233.374 50.7503 233.343C49.669 233.268 48.5725 233.39 47.54 233.7C47.6347 233.288 47.4421 232.831 47.0724 232.59C46.8026 232.951 46.9129 233.511 47.3026 233.758L46.2733 234.709L45.7806 233.65C45.5376 233.711 45.5305 233.989 45.5473 234.245L45.5592 234.404C45.6085 235.075 45.0005 235.727 44.2836 235.772C43.5668 235.817 42.8707 235.247 42.8232 234.577C42.7716 233.846 43.3698 233.233 43.9259 232.718L47.8747 229.06C47.9587 228.985 48.0549 228.916 48.1683 228.918C48.2935 228.92 48.3951 229.009 48.4833 229.092L50.0242 230.547C50.323 230.829 50.1342 231.26 49.9501 231.681C49.7607 232.114 49.5763 232.535 49.9341 232.77C50.2824 232.789 50.5725 232.506 50.7063 232.205C50.7747 232.051 50.8162 231.889 50.8577 231.726C50.8975 231.57 50.9374 231.415 51.001 231.266C51.1309 230.963 51.4112 230.675 51.76 230.682C52.1089 230.689 52.378 231.155 52.1083 231.362C51.8206 231.583 51.7385 231.942 51.6587 232.29C51.642 232.364 51.6253 232.436 51.607 232.507ZM24.6079 234.125C21.0585 232.348 17.9211 229.856 15.4722 226.868C15.7933 226.583 16.2763 226.886 16.5869 227.208L16.6637 227.292C18.9906 229.986 21.9127 232.227 25.1922 233.834C25.1656 234.076 24.8374 234.239 24.6079 234.125ZM41.6301 233.444C43.1676 231.563 44.8711 229.801 46.7176 228.181C47.0039 227.93 47.5984 227.761 47.6708 228.122C45.5211 230.041 43.4651 232.053 41.5112 234.148C41.2988 233.975 41.4593 233.653 41.6301 233.444ZM29.8221 228.741C28.7492 228.384 27.7928 227.727 27.1075 226.876C26.8497 226.556 26.687 226 27.0777 225.835C27.3865 225.705 27.6831 225.978 27.8985 226.243L28.06 226.449C28.754 227.305 29.7438 227.95 30.8448 228.258C30.8467 228.532 30.6035 228.79 30.3118 228.822C30.1457 228.84 29.9797 228.794 29.8221 228.741ZM82.4712 173.076C82.9756 173.087 83.4026 173.579 83.311 174.043L83.3229 174.049C83.3926 174.386 83.3467 174.742 83.1935 175.054C82.642 174.548 82.3658 173.791 82.4712 173.076ZM92.08 173.087C92.1437 173.082 92.2107 173.076 92.2786 173.075C92.3637 173.074 92.4618 173.089 92.5543 173.102L92.5545 173.102C92.8041 173.138 93.013 173.168 92.8157 172.879C92.5452 172.483 91.7535 172.439 91.6237 172.893C91.66 173.122 91.8486 173.106 92.08 173.087ZM92.7174 175.047L92.7288 175.006C92.9212 174.323 92.8099 173.785 92.2787 173.785C92.0738 173.8 91.7609 174.776 91.7907 175.072C91.8206 175.368 92.1772 175.642 92.4535 175.495C92.6173 175.408 92.6698 175.218 92.7174 175.047ZM89.2135 174.839C88.8432 174.358 88.8043 173.673 89.1181 173.158C89.1649 173.081 89.2216 173.005 89.3036 172.961C89.5114 172.85 89.7893 173.001 89.8809 173.208C89.9725 173.415 89.9325 173.65 89.8911 173.87C89.8911 173.87 89.5838 175.32 89.2135 174.839ZM167.658 174.854C160.893 173.302 153.826 172.909 146.913 173.703C148.113 171.087 148.639 168.204 148.436 165.365C146.634 166.546 143.677 165.16 143.608 163.103C143.54 161.046 146.4 159.492 148.277 160.566C148.774 160.851 149.321 160.26 149.52 159.748C150.197 158.001 150.204 156.033 149.538 154.283C149.279 153.601 150.379 153.231 151.152 153.245L157.717 153.367C158.158 153.375 158.626 153.376 159.003 153.162C159.379 152.947 159.593 152.431 159.317 152.109C158.181 150.791 159.486 148.431 161.293 148.537C163.1 148.643 164.08 151.137 162.776 152.313C162.533 152.532 163.005 152.814 163.343 152.821L171.927 153.006C173.634 153.043 174.841 154.745 174.91 156.341C174.969 157.691 174.457 158.985 173.95 160.263C173.906 160.374 173.862 160.486 173.818 160.597L173.678 160.958C172.158 164.949 171.668 169.28 172.263 173.48C172.379 174.299 171.573 175.028 170.71 175.206C169.949 175.362 169.164 175.207 168.402 175.029L167.658 174.854Z" fill="#00160A"/>
<path fill-rule="evenodd" clip-rule="evenodd" d="M76.1613 101.357C76.2238 100.978 76.763 100.76 77.1527 100.89C77.5424 101.02 77.8904 101.543 77.6048 101.838C77.1527 102.306 76.04 102.092 76.1613 101.357Z" fill="#FFB61D"/>
<path fill-rule="evenodd" clip-rule="evenodd" d="M245.797 199.37C245.542 199.57 245.031 199.642 244.983 199.334C245.978 198.388 246.662 197.16 246.921 195.856C247.246 195.774 247.34 196.258 247.258 196.563C246.984 197.591 246.664 198.689 245.797 199.37Z" fill="#00160A"/>
<path d="M26.2988 86.6234C26.2887 86.9284 25.7941 86.9106 25.4949 86.7888C25.6026 86.5166 26.0391 86.4255 26.2603 86.6291L26.2988 86.6234Z" fill="black"/>
<path fill-rule="evenodd" clip-rule="evenodd" d="M167.456 170.432C167.111 170.718 166.531 170.28 166.582 169.851C166.634 169.422 167.04 169.115 167.43 168.884C168.826 168.056 170.444 167.558 172.093 167.446C172.137 168.034 171.322 168.277 170.703 168.39C169.39 168.63 168.139 169.162 167.084 169.93C167.275 170.039 167.413 170.226 167.456 170.432V170.432Z" fill="#00160A"/>
<path fill-rule="evenodd" clip-rule="evenodd" d="M172.14 171.182C171.366 171.531 170.578 171.854 169.779 172.149C169.87 172.465 170.355 172.454 170.683 172.343C171.011 172.232 171.443 172.116 171.656 172.375C171.116 173.146 169.777 173.266 169.09 172.605C168.791 172.318 168.25 172.507 167.864 172.333C167.312 172.083 167.415 171.303 167.74 170.817C168.419 169.801 169.714 169.174 170.992 169.243C171.479 169.269 172.06 169.494 172.093 169.949C170.566 169.86 169.009 170.448 167.978 171.506C168.564 171.93 169.404 171.613 170.065 171.3C170.725 170.987 171.597 170.711 172.14 171.182Z" fill="#00160A"/>
<path fill-rule="evenodd" clip-rule="evenodd" d="M90.8613 175.234C91.2996 175.644 91.4814 175.832 91.4814 176.435C91.4814 177.039 91.1315 177.426 90.5412 177.603C90.269 177.685 89.8923 177.622 89.8216 177.363C91.7888 176.987 91.0658 176.185 90.8613 175.234Z" fill="#00160A"/>
<path fill-rule="evenodd" clip-rule="evenodd" d="M88.2364 172.664C88.4463 172.013 89.3592 171.661 89.9983 171.985C90.2512 172.113 90.4616 172.346 90.4746 172.615C89.7285 172.631 89.1142 172.18 88.2364 172.664Z" fill="#00160A"/>
<path fill-rule="evenodd" clip-rule="evenodd" d="M90.0225 178.481C89.1189 179.089 85.8608 176.319 90.0225 178.481V178.481Z" fill="#00160A"/>
</svg>
