<svg width="258" height="53" viewBox="0 0 258 53" fill="none" xmlns="http://www.w3.org/2000/svg">
<g filter="url(#filter0_d_263_3420)">
<path d="M65.84 35C64.96 35 64.1467 34.7867 63.4 34.36C62.68 33.9333 62.1067 33.36 61.68 32.64C61.2533 31.8933 61.04 31.08 61.04 30.2V29.08H64.28V30.2C64.28 30.6267 64.4267 31 64.72 31.32C65.04 31.6133 65.4133 31.76 65.84 31.76H85.04C85.4667 31.76 85.8267 31.6133 86.12 31.32C86.44 31 86.6 30.6267 86.6 30.2V23.76C86.6 23.3333 86.44 22.9733 86.12 22.68C85.8267 22.3867 85.4667 22.24 85.04 22.24H65.84C64.96 22.24 64.1467 22.0267 63.4 21.6C62.68 21.1467 62.1067 20.56 61.68 19.84C61.2533 19.12 61.04 18.32 61.04 17.44V11C61.04 10.12 61.2533 9.32 61.68 8.6C62.1067 7.85333 62.68 7.26667 63.4 6.84C64.1467 6.41333 64.96 6.2 65.84 6.2H85.04C85.92 6.2 86.72 6.41333 87.44 6.84C88.1867 7.26667 88.7733 7.85333 89.2 8.6C89.6267 9.32 89.84 10.12 89.84 11V12.12H86.6V11C86.6 10.5733 86.44 10.2133 86.12 9.92C85.8267 9.6 85.4667 9.44 85.04 9.44H65.84C65.4133 9.44 65.04 9.6 64.72 9.92C64.4267 10.2133 64.28 10.5733 64.28 11V17.44C64.28 17.8667 64.4267 18.2267 64.72 18.52C65.04 18.8133 65.4133 18.96 65.84 18.96H85.04C85.92 18.96 86.72 19.1867 87.44 19.64C88.1867 20.0667 88.7733 20.64 89.2 21.36C89.6267 22.08 89.84 22.88 89.84 23.76V30.2C89.84 31.08 89.6267 31.8933 89.2 32.64C88.7733 33.36 88.1867 33.9333 87.44 34.36C86.72 34.7867 85.92 35 85.04 35H65.84ZM94.0506 35V4.2H97.3306V11.8H112.851C113.731 11.8 114.531 12.0267 115.251 12.48C115.997 12.9067 116.584 13.4933 117.011 14.24C117.464 14.96 117.691 15.76 117.691 16.64V35H114.411V16.64C114.411 16.2133 114.251 15.8533 113.931 15.56C113.637 15.24 113.277 15.08 112.851 15.08H98.9306C98.504 15.08 98.1306 15.24 97.8106 15.56C97.4906 15.8533 97.3306 16.2133 97.3306 16.64V35H94.0506ZM125.725 35C124.845 35 124.031 34.7867 123.285 34.36C122.565 33.9067 121.978 33.32 121.525 32.6C121.098 31.8533 120.885 31.04 120.885 30.16V21.76H141.205V16.64C141.205 16.2133 141.045 15.8533 140.725 15.56C140.431 15.24 140.071 15.08 139.645 15.08H120.885V11.8H139.645C140.551 11.8 141.365 12.0267 142.085 12.48C142.831 12.9067 143.418 13.4933 143.845 14.24C144.298 14.96 144.525 15.76 144.525 16.64V35H125.725ZM125.725 31.72H141.205V25.04H124.165V30.16C124.165 30.5867 124.311 30.96 124.605 31.28C124.925 31.5733 125.298 31.72 125.725 31.72ZM148.463 35V16.64C148.463 15.76 148.676 14.96 149.103 14.24C149.556 13.4933 150.143 12.9067 150.863 12.48C151.609 12.0267 152.423 11.8 153.303 11.8H166.343V15.08H153.303C152.876 15.08 152.503 15.24 152.183 15.56C151.889 15.8533 151.743 16.2133 151.743 16.64V35H148.463ZM173.732 35C172.852 35 172.038 34.7867 171.292 34.36C170.572 33.9067 169.985 33.32 169.532 32.6C169.105 31.8533 168.892 31.04 168.892 30.16V16.64C168.892 15.76 169.105 14.96 169.532 14.24C169.985 13.4933 170.572 12.9067 171.292 12.48C172.038 12.0267 172.852 11.8 173.732 11.8H187.652C188.558 11.8 189.372 12.0267 190.092 12.48C190.838 12.9067 191.425 13.4933 191.852 14.24C192.305 14.96 192.532 15.76 192.532 16.64V25.04H172.172V30.16C172.172 30.5867 172.318 30.96 172.612 31.28C172.932 31.5733 173.305 31.72 173.732 31.72H192.532V35H173.732ZM172.172 21.76H189.212V16.64C189.212 16.2133 189.052 15.8533 188.732 15.56C188.438 15.24 188.078 15.08 187.652 15.08H173.732C173.305 15.08 172.932 15.24 172.612 15.56C172.318 15.8533 172.172 16.2133 172.172 16.64V21.76ZM201.507 35C200.627 35 199.814 34.7867 199.067 34.36C198.347 33.9333 197.774 33.36 197.347 32.64C196.92 31.8933 196.707 31.08 196.707 30.2V6.2H199.947V30.2C199.947 30.6267 200.094 31 200.387 31.32C200.707 31.6133 201.08 31.76 201.507 31.76H220.707C221.134 31.76 221.494 31.6133 221.787 31.32C222.107 31 222.267 30.6267 222.267 30.2V6.2H225.507V30.2C225.507 31.08 225.294 31.8933 224.867 32.64C224.44 33.36 223.854 33.9333 223.107 34.36C222.387 34.7867 221.587 35 220.707 35H201.507ZM229.832 44.2V11.8H248.632C249.512 11.8 250.312 12.0267 251.032 12.48C251.779 12.9067 252.365 13.4933 252.792 14.24C253.245 14.96 253.472 15.76 253.472 16.64V30.16C253.472 31.04 253.245 31.8533 252.792 32.6C252.365 33.32 251.779 33.9067 251.032 34.36C250.312 34.7867 249.512 35 248.632 35H233.112V44.2H229.832ZM234.712 31.72H248.632C249.059 31.72 249.419 31.5733 249.712 31.28C250.032 30.96 250.192 30.5867 250.192 30.16V16.64C250.192 16.2133 250.032 15.8533 249.712 15.56C249.419 15.24 249.059 15.08 248.632 15.08H234.712C234.285 15.08 233.912 15.24 233.592 15.56C233.272 15.8533 233.112 16.2133 233.112 16.64V30.16C233.112 30.5867 233.272 30.96 233.592 31.28C233.912 31.5733 234.285 31.72 234.712 31.72Z" fill="white"/>
</g>
<g filter="url(#filter1_d_263_3420)">
<path d="M34.9399 28.88C37.6799 29.34 40.6999 28.86 42.8199 27.44C45.6399 25.56 45.6399 22.48 42.8199 20.6C40.6799 19.18 37.6199 18.7 34.8799 19.18M14.9999 28.88C12.2599 29.34 9.23988 28.86 7.11988 27.44C4.29988 25.56 4.29988 22.48 7.11988 20.6C9.25988 19.18 12.3199 18.7 15.0599 19.18M36.9999 14.32C36.8799 14.3 36.7399 14.3 36.6199 14.32C33.8599 14.22 31.6599 11.96 31.6599 9.16C31.6599 6.3 33.9599 4 36.8199 4C39.6799 4 41.9799 6.32 41.9799 9.16C41.9599 11.96 39.7599 14.22 36.9999 14.32ZM12.9399 14.32C13.0599 14.3 13.1999 14.3 13.3199 14.32C16.0799 14.22 18.2799 11.96 18.2799 9.16C18.2799 6.3 15.9799 4 13.1199 4C10.2599 4 7.95988 6.32 7.95988 9.16C7.97988 11.96 10.1799 14.22 12.9399 14.32ZM24.9999 29.26C24.8799 29.24 24.7399 29.24 24.6199 29.26C21.8599 29.16 19.6599 26.9 19.6599 24.1C19.6599 21.24 21.9599 18.94 24.8199 18.94C27.6799 18.94 29.9799 21.26 29.9799 24.1C29.9599 26.9 27.7599 29.18 24.9999 29.26ZM19.1799 35.56C16.3599 37.44 16.3599 40.52 19.1799 42.4C22.3799 44.54 27.6199 44.54 30.8199 42.4C33.6399 40.52 33.6399 37.44 30.8199 35.56C27.6399 33.44 22.3799 33.44 19.1799 35.56Z" stroke="white" stroke-width="1.5" stroke-linecap="round" stroke-linejoin="round"/>
</g>
<defs>
<filter id="filter0_d_263_3420" x="57.04" y="4.19922" width="200.432" height="48" filterUnits="userSpaceOnUse" color-interpolation-filters="sRGB">
<feFlood flood-opacity="0" result="BackgroundImageFix"/>
<feColorMatrix in="SourceAlpha" type="matrix" values="0 0 0 0 0 0 0 0 0 0 0 0 0 0 0 0 0 0 127 0" result="hardAlpha"/>
<feOffset dy="4"/>
<feGaussianBlur stdDeviation="2"/>
<feComposite in2="hardAlpha" operator="out"/>
<feColorMatrix type="matrix" values="0 0 0 0 0 0 0 0 0 0 0 0 0 0 0 0 0 0 0.25 0"/>
<feBlend mode="normal" in2="BackgroundImageFix" result="effect1_dropShadow_263_3420"/>
<feBlend mode="normal" in="SourceGraphic" in2="effect1_dropShadow_263_3420" result="shape"/>
</filter>
<filter id="filter1_d_263_3420" x="-3" y="0" width="56" height="56" filterUnits="userSpaceOnUse" color-interpolation-filters="sRGB">
<feFlood flood-opacity="0" result="BackgroundImageFix"/>
<feColorMatrix in="SourceAlpha" type="matrix" values="0 0 0 0 0 0 0 0 0 0 0 0 0 0 0 0 0 0 127 0" result="hardAlpha"/>
<feOffset dy="4"/>
<feGaussianBlur stdDeviation="2"/>
<feComposite in2="hardAlpha" operator="out"/>
<feColorMatrix type="matrix" values="0 0 0 0 0 0 0 0 0 0 0 0 0 0 0 0 0 0 0.25 0"/>
<feBlend mode="normal" in2="BackgroundImageFix" result="effect1_dropShadow_263_3420"/>
<feBlend mode="normal" in="SourceGraphic" in2="effect1_dropShadow_263_3420" result="shape"/>
</filter>
</defs>
</svg>
